<?xml version="1.0" encoding="UTF-8" standalone="no" ?>
<!DOCTYPE svg PUBLIC "-//W3C//DTD SVG 1.1//EN" "http://www.w3.org/Graphics/SVG/1.1/DTD/svg11.dtd">
<svg xmlns="http://www.w3.org/2000/svg" xmlns:xlink="http://www.w3.org/1999/xlink" version="1.1" width="auto" transform="scale(1)" height="auto" viewBox="0 0 1080 1080" xml:space="preserve">
<desc>Created with Fabric.js 5.2.4</desc>
<defs>
</defs>
<rect x="0" y="0" width="100%" height="100%" fill="transparent"></rect>
<g transform="matrix(1 0 0 1 540 540)" id="ab580609-b211-4f08-a717-5d96186424e7"  >
<rect style="stroke: none; stroke-width: 1; stroke-dasharray: none; stroke-linecap: butt; stroke-dashoffset: 0; stroke-linejoin: miter; stroke-miterlimit: 4; fill: rgb(255,255,255); fill-rule: nonzero; opacity: 1; visibility: hidden;" vector-effect="non-scaling-stroke"  x="-540" y="-540" rx="0" ry="0" width="1080" height="1080" />
</g>
<g transform="matrix(1 0 0 1 540 540)" id="f8ce2480-d61b-4943-bd5b-67eaed60f784"  >
</g>
<g transform="matrix(6.84 0 0 6.84 540 540)"  >
<g style=""   >
		<g transform="matrix(1 0 0 1 -73.54 0.18)" id="Fill-4"  >
<polyline style="stroke: none; stroke-width: 1; stroke-dasharray: none; stroke-linecap: butt; stroke-dashoffset: 0; stroke-linejoin: miter; stroke-miterlimit: 4; fill: rgb(255,255,0); fill-rule: evenodd; opacity: 1;" vector-effect="non-scaling-stroke"  points="-5.46,-10.41 -2.77,-10.41 -2.77,10.41 -5.46,10.41 -5.46,12.34 5.46,12.34 5.46,10.41 2.77,10.41 2.77,-10.41 5.46,-10.41 5.46,-12.34 -5.46,-12.34 -5.46,-10.41 " />
</g>
		<g transform="matrix(1 0 0 1 -5.71 0.18)" id="Fill-6"  >
<polyline style="stroke: none; stroke-width: 1; stroke-dasharray: none; stroke-linecap: butt; stroke-dashoffset: 0; stroke-linejoin: miter; stroke-miterlimit: 4; fill: rgb(255,255,0); fill-rule: evenodd; opacity: 1;" vector-effect="non-scaling-stroke"  points="-5.46,-10.41 -2.77,-10.41 -2.77,10.41 -5.46,10.41 -5.46,12.34 5.46,12.34 5.46,10.41 2.77,10.41 2.77,-10.41 5.46,-10.41 5.46,-12.34 -5.46,-12.34 -5.46,-10.41 " />
</g>
		<g transform="matrix(1 0 0 1 -25.16 0.15)" id="Fill-7"  >
<path style="stroke: none; stroke-width: 1; stroke-dasharray: none; stroke-linecap: butt; stroke-dashoffset: 0; stroke-linejoin: miter; stroke-miterlimit: 4; fill: rgb(255,255,0); fill-rule: evenodd; opacity: 1;" vector-effect="non-scaling-stroke"  transform=" translate(-53.84, -14.15)" d="M 65.965 1.90604878 C 62.4801466 2.40390244 58.7610172 1.848 56.1451638 1.848 C 53.5579138 1.848 50.0335603 4.07502439 48.8179138 7.19190244 L 47.5334828 3.77590244 L 49.2748879 3.77590244 L 49.2748879 1.848 L 41.0275603 1.848 L 41.0275603 3.77590244 L 41.9864569 3.77590244 L 50.5218621 26.4606829 L 56.069569 26.4606829 L 64.9093966 4.52370732 L 66.5929138 3.77590244 C 66.5929138 3.77590244 66.9388793 1.76604878 65.965 1.90604878 M 54.3853707 21.9881951 L 49.4206293 8.79268293 L 49.513931 9.00985366 C 50.9876897 5.152 54.6714052 5.35960976 56.7356207 5.63482927 C 58.7187931 5.9004878 59.2139052 6.59980488 60.6890259 6.3484878 L 54.3853707 21.9881951" stroke-linecap="round" />
</g>
		<g transform="matrix(1 0 0 1 -52.51 0.18)" id="Fill-8"  >
<polyline style="stroke: none; stroke-width: 1; stroke-dasharray: none; stroke-linecap: butt; stroke-dashoffset: 0; stroke-linejoin: miter; stroke-miterlimit: 4; fill: rgb(255,255,0); fill-rule: evenodd; opacity: 1;" vector-effect="non-scaling-stroke"  points="4.85,-10.41 7.33,-10.41 7.33,4.43 -5.88,-12.34 -13.09,-12.34 -13.09,-10.41 -10.4,-10.41 -10.4,10.41 -13.09,10.41 -13.09,12.34 -4.85,12.34 -4.85,10.41 -7.33,10.41 -7.33,-5.35 7.33,12.28 10.4,12.28 10.4,-10.41 13.09,-10.41 13.09,-12.34 4.85,-12.34 4.85,-10.41 " />
</g>
		<g transform="matrix(1 0 0 1 16.2 0.47)" id="Fill-9"  >
<path style="stroke: none; stroke-width: 1; stroke-dasharray: none; stroke-linecap: butt; stroke-dashoffset: 0; stroke-linejoin: miter; stroke-miterlimit: 4; fill: rgb(255,255,0); fill-rule: evenodd; opacity: 1;" vector-effect="non-scaling-stroke"  transform=" translate(-95.2, -14.47)" d="M 100.645319 8.43278049 L 101.990362 9.89356098 L 108.28244 4.88360976 L 106.937397 3.42282927 L 105.539914 4.536 C 103.062991 2.5022439 99.5263793 1.52565854 95.9727414 1.52565854 C 88.3233621 1.52565854 82.1232241 7.32165854 82.1232241 14.4725854 C 82.1232241 21.6228293 88.3233621 27.4188293 95.9727414 27.4188293 C 100.416491 27.4188293 104.360362 25.4540488 106.895172 22.4116098 L 105.766698 21.5060488 C 102.467086 24.3982439 99.3751897 24.5348293 96.6994052 24.5348293 C 91.8054914 24.5348293 87.8391466 19.814439 87.8391466 13.990439 C 87.8391466 8.16712195 91.8054914 3.44673171 96.6994052 3.44673171 C 99.5672414 3.44673171 102.911121 5.69014634 100.81694 8.29619512 L 100.645319 8.43278049" stroke-linecap="round" />
</g>
		<g transform="matrix(1 0 0 1 41.77 -0.52)" id="Fill-10"  >
<path style="stroke: none; stroke-width: 1; stroke-dasharray: none; stroke-linecap: butt; stroke-dashoffset: 0; stroke-linejoin: miter; stroke-miterlimit: 4; fill: rgb(255,255,0); fill-rule: evenodd; opacity: 1;" vector-effect="non-scaling-stroke"  transform=" translate(-120.77, -13.48)" d="M 123.566897 3.77521951 C 124.82 3.77521951 128.724371 3.49863415 130.347276 8.36926829 L 132.379483 8.04692683 L 130.96225 0.436390244 L 128.929362 0.757365854 L 129.132991 1.84731707 L 112.402698 1.84731707 L 112.604966 0.757365854 L 110.572078 0.436390244 L 109.154164 8.04692683 L 111.187733 8.36926829 C 112.798379 3.53141463 116.659845 3.77112195 117.938828 3.77521951 L 117.938828 24.5901463 L 115.249422 24.5901463 L 115.249422 26.5180488 L 126.176621 26.5180488 L 126.176621 24.5901463 L 123.487216 24.5901463 L 123.487216 3.77521951 L 123.566897 3.77521951" stroke-linecap="round" />
</g>
		<g transform="matrix(1 0 0 1 64.71 0.18)" id="Fill-11"  >
<path style="stroke: none; stroke-width: 1; stroke-dasharray: none; stroke-linecap: butt; stroke-dashoffset: 0; stroke-linejoin: miter; stroke-miterlimit: 4; fill: rgb(255,255,0); fill-rule: evenodd; opacity: 1;" vector-effect="non-scaling-stroke"  transform=" translate(-143.71, -14.18)" d="M 155.762802 24.5901463 L 147.206966 1.848 L 140.608422 1.848 L 132.051224 24.5901463 L 129.681905 24.5901463 L 129.681905 26.5180488 L 137.928552 26.5180488 L 137.928552 24.5901463 L 135.53744 24.5901463 L 137.494733 19.385561 L 148.257802 19.385561 L 150.215776 24.5901463 L 148.253716 24.5901463 L 148.253716 26.5180488 L 157.737802 26.5180488 L 157.737802 24.5901463 L 155.762802 24.5901463 Z M 138.219353 17.4597073 L 142.876267 5.08439024 L 147.533181 17.4597073 L 138.219353 17.4597073 Z" stroke-linecap="round" />
</g>
</g>
</g>
</svg>