<?xml version="1.0" encoding="UTF-8" standalone="no"?>
<svg
   xmlns:dc="http://purl.org/dc/elements/1.1/"
   xmlns:cc="http://creativecommons.org/ns#"
   xmlns:rdf="http://www.w3.org/1999/02/22-rdf-syntax-ns#"
   xmlns:svg="http://www.w3.org/2000/svg"
   xmlns="http://www.w3.org/2000/svg"
   height="162.63762"
   width="258.63"
   xml:space="preserve"
   viewBox="0 0 258.63 162.63762"
   y="0px"
   x="0px"
   id="Laag_1"
   version="1.1"><metadata
   id="metadata71"><rdf:RDF><cc:Work
       rdf:about=""><dc:format>image/svg+xml</dc:format><dc:type
         rdf:resource="http://purl.org/dc/dcmitype/StillImage" /><dc:title></dc:title></cc:Work></rdf:RDF></metadata><defs
   id="defs69" />
<style
   id="style2"
   type="text/css">
	.st0{fill:#FFFFFF;}
</style>
<g
   transform="translate(0,-0.00237395)"
   id="g64">
	<g
   id="g22">
		<polygon
   style="fill:#ffffff"
   id="polygon4"
   points="38.86,159.3 35.69,159.3 35.69,161.57 48.56,161.57 48.56,159.3 45.39,159.3 45.39,134.86 48.56,134.86 48.56,132.59 35.69,132.59 35.69,134.86 38.86,134.86 "
   class="st0" />
		<polygon
   style="fill:#ffffff"
   id="polygon6"
   points="118.74,159.3 115.58,159.3 115.58,161.57 128.44,161.57 128.44,159.3 125.28,159.3 125.28,134.86 128.44,134.86 128.44,132.59 115.58,132.59 115.58,134.86 118.74,134.86 "
   class="st0" />
		<g
   id="g10">
			<path
   style="fill:#ffffff"
   id="path8"
   d="m 99.74,156.25 -5.85,-15.5 0.11,0.26 c 1.73,-4.53 6.07,-4.29 8.5,-3.96 2.34,0.31 2.92,1.13 4.66,0.84 z m 13.64,-23.59 c -4.1,0.58 -8.48,-0.07 -11.56,-0.07 -3.05,0 -7.2,2.61 -8.63,6.28 l -1.51,-4.01 h 2.05 v -2.26 h -9.71 v 2.26 h 1.13 L 95.2,161.5 h 6.53 l 10.41,-25.76 1.98,-0.88 c 0,0 0.41,-2.36 -0.74,-2.2"
   class="st0" />
		</g>
		<polygon
   style="fill:#ffffff"
   id="polygon12"
   points="75.52,152.28 59.97,132.59 51.48,132.59 51.48,134.86 54.65,134.86 54.65,159.3 51.48,159.3 51.48,161.57 61.19,161.57 61.19,159.3 58.26,159.3 58.26,140.79 75.52,161.5 79.14,161.5 79.14,134.86 82.31,134.86 82.31,132.59 72.6,132.59 72.6,134.86 75.52,134.86 "
   class="st0" />
		<g
   id="g18">
			<path
   style="fill:#ffffff"
   id="path14"
   d="m 154.22,140.33 1.58,1.72 7.41,-5.88 -1.59,-1.72 -1.65,1.31 c -2.92,-2.39 -7.08,-3.53 -11.27,-3.53 -9.01,0 -16.31,6.81 -16.31,15.21 0,8.4 7.3,15.2 16.31,15.2 5.23,0 9.88,-2.31 12.86,-5.88 l -1.33,-1.06 c -3.89,3.4 -7.53,3.56 -10.68,3.56 -5.76,0 -10.43,-5.54 -10.43,-12.38 0,-6.84 4.67,-12.38 10.43,-12.38 3.38,0 7.32,2.63 4.85,5.69 z"
   class="st0" />
			<path
   style="fill:#ffffff"
   id="path16"
   d="m 181.21,134.86 c 1.48,0 6.07,-0.32 7.98,5.4 l 2.39,-0.38 -1.67,-8.94 -2.39,0.38 0.24,1.28 h -19.7 l 0.24,-1.28 -2.39,-0.38 -1.67,8.94 2.39,0.38 c 1.9,-5.68 6.44,-5.4 7.95,-5.4 v 24.44 h -3.17 v 2.27 h 12.87 v -2.27 h -3.17 v -24.44 z"
   class="st0" />
		</g>
		<path
   style="fill:#ffffff"
   id="path20"
   d="m 198.47,150.93 5.48,-14.53 5.48,14.53 z m 20.66,8.37 -10.08,-26.71 h -7.77 L 191.2,159.3 h -2.79 v 2.26 h 9.71 v -2.26 h -2.82 l 2.3,-6.11 h 12.68 l 2.31,6.11 h -2.31 v 2.26 h 11.17 v -2.26 z"
   class="st0" />
	</g>
	<g
   id="g28">
		
			<rect
   style="fill:#ffffff"
   id="rect24"
   height="0.77999997"
   width="21.23"
   class="st0"
   transform="matrix(0.7071,-0.7071,0.7071,0.7071,-40.9307,123.3632)"
   y="110.7"
   x="117.83" />
		
			<rect
   style="fill:#ffffff"
   id="rect26"
   height="21.23"
   width="0.77999997"
   class="st0"
   transform="matrix(0.7071,-0.7071,0.7071,0.7071,-40.9307,123.3632)"
   y="100.47"
   x="128.06" />
	</g>
	<g
   id="g62">
		<path
   style="fill:#ffffff"
   id="path30"
   d="m 154.7,0.62 c -0.58,-0.79 -1.7,-0.76 -2.85,-0.26 -2.81,1.22 -22.56,9.98 -22.56,9.98 0,0 -19.7,-8.75 -22.51,-9.98 -1.15,-0.5 -2.27,-0.53 -2.85,0.26 -0.58,0.79 -0.28,1.74 0.6,2.78 2.01,2.42 16.34,17.95 16.34,17.95 0.57,1.12 7.25,26.56 7.47,27.34 0.2,0.72 0.58,0.91 0.95,0.91 0.38,0 0.75,-0.19 0.95,-0.91 0.21,-0.78 6.94,-26.22 7.51,-27.34 0,0 14.33,-15.53 16.35,-17.95 0.87,-1.04 1.18,-1.99 0.6,-2.78"
   class="st0" />
		<path
   style="fill:#ffffff"
   id="path32"
   d="m 103.05,8.73 c -0.46,-0.49 -1.13,-0.23 -1.29,0.34 -5.79,21.24 9.66,33.97 11.21,35.28 0.68,0.57 1.63,0.43 1.42,-0.36 -0.44,-1.74 -6.81,-14.94 -0.79,-22.25 0.29,-0.36 0.39,-0.95 -0.02,-1.37 -0.1,-0.1 -10.42,-11.53 -10.53,-11.64"
   class="st0" />
		<path
   style="fill:#ffffff"
   id="path34"
   d="m 155.59,8.73 c 0.46,-0.49 1.13,-0.23 1.29,0.34 5.78,21.24 -9.66,33.97 -11.21,35.28 -0.68,0.57 -1.63,0.43 -1.43,-0.36 0.44,-1.74 6.82,-14.94 0.79,-22.25 -0.29,-0.36 -0.39,-0.95 0.03,-1.37 0.09,-0.1 10.41,-11.53 10.53,-11.64"
   class="st0" />
		<path
   style="fill:#ffffff"
   id="path36"
   d="m 120.41,74.99 c 6.01,0 10.03,2.17 10.03,7.26 0,5.1 -4.02,7.27 -10.03,7.27 -6.01,0 -10.03,-2.17 -10.03,-7.27 0,-5.09 4.02,-7.26 10.03,-7.26 m 0,11.61 c 3.09,0 4.76,-1.7 4.76,-4.35 0,-2.65 -1.67,-4.34 -4.75,-4.34 -3.09,0 -4.76,1.69 -4.76,4.34 -0.01,2.65 1.66,4.35 4.75,4.35"
   class="st0" />
		<path
   style="fill:#ffffff"
   id="path38"
   d="M 19.29,70.74 H 0.24 C 0.11,70.74 0,70.85 0,70.98 v 2.95 c 0,0.14 0.11,0.24 0.24,0.24 h 6.73 c 0.13,0 0.24,0.11 0.24,0.24 v 14.4 c 0,0.13 0.11,0.24 0.24,0.24 h 4.51 c 0.13,0 0.24,-0.11 0.24,-0.24 0,0 0,-14.27 0,-14.4 0,-0.13 0.11,-0.24 0.24,-0.24 h 6.85 c 0.13,0 0.24,-0.11 0.24,-0.24 v -2.95 c -0.01,-0.13 -0.11,-0.24 -0.24,-0.24"
   class="st0" />
		<path
   style="fill:#ffffff"
   id="path40"
   d="m 42.79,82.25 c 0,4.95 3.67,7.27 9.63,7.27 2.82,0 5.47,-0.38 7.25,-1.69 1.87,-1.37 2.3,-3.52 2.3,-3.58 0,-0.13 -0.11,-0.24 -0.24,-0.24 h -4.57 c -0.27,0 -0.32,0.15 -0.48,0.48 -0.7,1.44 -2.08,2.02 -3.9,2.02 -3.09,0 -4.83,-1.62 -4.83,-4.27 0,-2.65 1.74,-4.27 4.83,-4.27 1.82,0 3.28,0.58 3.98,2.02 0.16,0.33 0.21,0.48 0.48,0.48 h 4.52 c 0.13,0 0.24,-0.11 0.24,-0.24 0,-0.28 -0.19,-0.89 -0.58,-1.59 -0.87,-1.58 -3.09,-3.66 -8.6,-3.66 -6.05,0.01 -10.03,2.17 -10.03,7.27"
   class="st0" />
		<path
   style="fill:#ffffff"
   id="path42"
   d="m 29.12,74.99 c -5.8,0 -9.88,2.17 -9.88,7.26 0,5.1 4.02,7.27 10.03,7.27 4.31,0 6.6,-1.17 7.87,-2.33 0.96,-0.87 1.45,-1.86 1.45,-1.97 0,-0.13 -0.11,-0.24 -0.24,-0.24 h -4.71 c -0.17,0 -0.25,0.08 -0.29,0.12 -0.34,0.4 -1.37,1.65 -3.9,1.65 -2.27,0 -3.55,-0.74 -4.25,-1.47 -0.71,-0.76 -0.8,-1.52 -0.8,-1.81 0,-0.13 0.11,-0.24 0.24,-0.24 h 14.13 c 0.13,0 0.24,-0.11 0.24,-0.24 0.01,-5.38 -3.46,-8 -9.89,-8 m 4.51,6.02 h -8.98 c -0.13,0 -0.24,-0.11 -0.24,-0.24 0,-0.16 0.43,-3.24 4.71,-3.24 4.28,0 4.75,3.09 4.75,3.24 -0.01,0.13 -0.11,0.24 -0.24,0.24"
   class="st0" />
		<path
   style="fill:#ffffff"
   id="path44"
   d="m 248.73,74.99 c -5.79,0 -9.88,2.17 -9.88,7.26 0,5.1 4.02,7.27 10.03,7.27 4.31,0 6.6,-1.17 7.88,-2.33 0.95,-0.87 1.45,-1.86 1.44,-1.97 0,-0.13 -0.11,-0.24 -0.23,-0.24 h -4.72 c -0.18,0 -0.25,0.08 -0.29,0.12 -0.34,0.4 -1.37,1.65 -3.9,1.65 -2.27,0 -3.55,-0.74 -4.24,-1.47 -0.71,-0.76 -0.81,-1.52 -0.81,-1.81 0,-0.13 0.11,-0.24 0.24,-0.24 h 14.14 c 0.13,0 0.24,-0.11 0.24,-0.24 0,-5.38 -3.47,-8 -9.9,-8 m 4.51,6.02 h -8.98 c -0.13,0 -0.24,-0.11 -0.24,-0.24 0,-0.16 0.43,-3.24 4.72,-3.24 4.29,0 4.75,3.09 4.75,3.24 -0.01,0.13 -0.12,0.24 -0.25,0.24"
   class="st0" />
		<path
   style="fill:#ffffff"
   id="path46"
   d="m 65.14,70.75 h 5.64 c 0.13,0 0.24,0.11 0.24,0.24 v 6.43 h 0.06 c 0.74,-1.14 3.12,-2.43 6.04,-2.43 2.58,0 6.52,0.88 6.52,4.87 v 8.96 c 0,0.13 -0.11,0.24 -0.24,0.24 h -4.51 c -0.13,0 -0.24,-0.11 -0.24,-0.24 v -7.29 c -0.04,-1.8 -1.15,-2.97 -3.34,-2.97 -2.31,0 -4.26,0.96 -4.28,3.8 v 6.46 c 0,0.13 -0.11,0.24 -0.24,0.24 h -4.51 c -0.13,0 -0.24,-0.11 -0.24,-0.24 V 73.18 c 0,-0.94 -0.33,-1.53 -1.03,-2 -0.06,-0.04 -0.11,-0.12 -0.11,-0.2 0,-0.13 0.1,-0.23 0.24,-0.23"
   class="st0" />
		<path
   style="fill:#ffffff"
   id="path48"
   d="m 99.82,74.99 c -2.92,0 -5.3,1.29 -6.04,2.43 h -0.06 v -1.83 c 0,-0.14 -0.1,-0.24 -0.24,-0.24 h -4.51 c -0.13,0 -0.24,0.11 -0.24,0.24 v 13.24 c 0,0.13 0.11,0.24 0.24,0.24 h 4.51 c 0.13,0 0.24,-0.11 0.24,-0.24 v -6.46 c 0.02,-2.84 1.97,-3.8 4.29,-3.8 2.19,0 3.29,1.16 3.34,2.97 v 7.29 c 0,0.13 0.11,0.24 0.24,0.24 h 4.51 c 0.13,0 0.24,-0.11 0.24,-0.24 v -8.96 c -0.01,-4 -3.94,-4.88 -6.52,-4.88"
   class="st0" />
		<path
   style="fill:#ffffff"
   id="path50"
   d="m 228.16,74.99 c -2.92,0 -5.3,1.29 -6.03,2.43 h -0.06 v -1.83 c 0,-0.14 -0.11,-0.24 -0.24,-0.24 h -4.51 c -0.13,0 -0.24,0.11 -0.24,0.24 v 13.24 c 0,0.13 0.11,0.24 0.24,0.24 h 4.51 c 0.13,0 0.24,-0.11 0.24,-0.24 v -6.46 c 0.02,-2.84 1.97,-3.8 4.28,-3.8 2.2,0 3.3,1.16 3.34,2.97 v 7.29 c 0,0.13 0.11,0.24 0.24,0.24 h 4.51 c 0.14,0 0.24,-0.11 0.24,-0.24 v -8.96 c 0.01,-4 -3.94,-4.88 -6.52,-4.88"
   class="st0" />
		<path
   style="fill:#ffffff"
   id="path52"
   d="m 160.22,70.74 h -7.1 c -0.1,0 -0.19,0.06 -0.23,0.16 l -4.88,12.8 -4.88,-12.8 c -0.03,-0.09 -0.12,-0.16 -0.23,-0.16 h -8.47 c -0.14,0 -0.25,0.11 -0.25,0.24 0,0.09 0.04,0.16 0.11,0.2 0.69,0.46 1.02,1.06 1.02,2 v 15.63 c 0,0.13 0.11,0.24 0.24,0.24 h 4.51 c 0.13,0 0.24,-0.11 0.24,-0.24 V 74.63 h 0.06 c 0,0 5.25,14.17 5.28,14.27 0.03,0.09 0.12,0.16 0.22,0.16 h 4.01 c 0.11,0 0.19,-0.07 0.23,-0.16 0.04,-0.1 5.28,-14.27 5.28,-14.27 h 0.06 v 14.19 c 0,0.13 0.11,0.24 0.24,0.24 h 4.51 c 0.13,0 0.24,-0.11 0.24,-0.24 V 70.98 c 0.03,-0.13 -0.08,-0.24 -0.21,-0.24"
   class="st0" />
		<path
   style="fill:#ffffff"
   id="path54"
   d="m 211.55,75.34 h -4.51 c -0.13,0 -0.24,0.11 -0.24,0.24 v 13.24 c 0,0.14 0.11,0.24 0.24,0.24 h 4.51 c 0.13,0 0.24,-0.11 0.24,-0.24 V 75.58 c 0,-0.13 -0.11,-0.24 -0.24,-0.24"
   class="st0" />
		<path
   style="fill:#ffffff"
   id="path56"
   d="m 211.55,70.74 h -4.51 c -0.13,0 -0.24,0.11 -0.24,0.24 v 2.38 c 0,0.13 0.11,0.24 0.24,0.24 h 4.51 c 0.13,0 0.24,-0.11 0.24,-0.24 v -2.38 c 0,-0.13 -0.11,-0.24 -0.24,-0.24"
   class="st0" />
		<path
   style="fill:#ffffff"
   id="path58"
   d="M 202.55,75.52 V 75.5 75.31 c 0,-0.12 -0.09,-0.22 -0.21,-0.24 -0.27,-0.04 -0.93,-0.09 -1.61,-0.09 -2.83,0 -5.03,1.16 -6.26,3.3 h -0.06 v -2.7 c 0,-0.14 -0.11,-0.24 -0.24,-0.24 h -4.51 c -0.13,0 -0.23,0.11 -0.23,0.24 v 13.24 c 0,0.13 0.11,0.24 0.23,0.24 h 4.51 c 0.13,0 0.24,-0.11 0.24,-0.24 v -5.37 c 0,-2.58 1.98,-5.37 7.83,-3.97 0.17,0.04 0.29,-0.09 0.3,-0.21 v -3.75 z"
   class="st0" />
		<path
   style="fill:#ffffff"
   id="path60"
   d="m 175.19,75.03 c -9.15,0 -9.15,3.96 -9.15,4.1 0,0.03 0.07,0.19 0.24,0.19 h 4.4 c 0.1,0 0.19,-0.06 0.22,-0.15 0.58,-1.18 2.1,-1.67 3.94,-1.67 2.89,0 3.98,0.67 3.98,1.76 0,1.09 -0.46,1.31 -1.98,1.41 l -5.3,0.33 c -3.04,0.18 -6.3,0.88 -6.3,4.17 0,3.15 2.78,4.39 6.75,4.39 2.24,0 5.41,-0.43 7.11,-1.94 v 1.2 c 0,0.13 0.11,0.24 0.24,0.24 h 4.28 c 0.13,0 0.24,-0.11 0.24,-0.24 v -9.2 c 0.01,-2.52 -1.52,-4.59 -8.67,-4.59 m 3.79,8.53 c 0,2.31 -2.8,3.42 -5.36,3.42 -1.91,0 -3.21,-0.7 -3.21,-1.93 0,-1.23 0.9,-1.67 2.69,-1.8 l 2.94,-0.23 c 0.88,-0.07 1.71,-0.14 2.55,-0.45 0.3,-0.1 0.39,-0.11 0.39,0.2 z"
   class="st0" />
	</g>
</g>
</svg>