<?xml version="1.0" encoding="UTF-8"?>
<svg width="auto" height="auto" viewBox="0 0 287 26" version="1.1" xmlns="http://www.w3.org/2000/svg" xmlns:xlink="http://www.w3.org/1999/xlink">
    <title>Group 35</title>
    <defs>
        <polygon id="path-1" points="0 0.695320918 6.61089149 0.695320918 6.61089149 17.8612266 0 17.8612266"></polygon>
        <polygon id="path-3" points="0.277022266 0.409581944 19.0204766 0.409581944 19.0204766 14.1819431 0.277022266 14.1819431"></polygon>
    </defs>
    <g id="Design" stroke="none" stroke-width="1" fill="none" fill-rule="evenodd">
        <g id="Design-0.2---Homepage-Cruise-1-Copy" transform="translate(-165.000000, -69.000000)">
            <g id="Group-35" transform="translate(165.000000, 69.666667)">
                <path d="M156.014209,7.09399965 C161.70376,7.09399965 165.515479,9.15312465 165.515479,13.9790587 C165.510994,18.8106003 161.702639,20.8663608 156.011967,20.8663608 C150.317932,20.8663608 146.508455,18.8106003 146.508455,13.9790587 C146.508455,9.15312465 150.322416,7.09399965 156.014209,7.09399965 M156.011967,18.1029163 C158.938021,18.1029163 160.517643,16.4924024 160.517643,13.9790587 C160.517643,11.470201 158.939143,9.86529479 156.014209,9.86529479 C153.088154,9.86529479 151.507412,11.470201 151.506291,13.9790587 C151.506291,16.4924024 153.084791,18.1029163 156.011967,18.1029163" id="Fill-8" fill="#ffffff"></path>
                <path d="M60.210582,3.07343472 L42.1688203,3.07343472 C42.0421367,3.07343472 41.9401172,3.17549375 41.9401172,3.29886181 L41.9401172,6.09707361 C41.9401172,6.22717083 42.0421367,6.32586528 42.1688203,6.32586528 L48.5411172,6.32586528 C48.6655586,6.32586528 48.7675781,6.42792431 48.7675781,6.55353542 L48.7675781,20.2025285 C48.7675781,20.3303826 48.8695977,20.4335632 48.9940391,20.4335632 L53.2654062,20.4335632 C53.3909687,20.4335632 53.4963516,20.3303826 53.4963516,20.2025285 C53.4963516,20.2025285 53.4918672,6.68026806 53.4918672,6.55353542 C53.4918672,6.42792431 53.5938867,6.32586528 53.7216914,6.32586528 L60.210582,6.32586528 C60.3339023,6.32586528 60.437043,6.22717083 60.437043,6.09707361 L60.437043,3.29886181 C60.437043,3.17549375 60.3339023,3.07343472 60.210582,3.07343472" id="Fill-10" fill="#ffffff"></path>
                <path d="M82.4769613,13.9743483 C82.4769613,18.6668205 85.9545941,20.867258 91.5959379,20.867258 C94.2652621,20.867258 96.7821176,20.506126 98.4660004,19.2645948 C100.235086,17.962501 100.647649,15.9314142 100.647649,15.8742163 C100.647649,15.7486052 100.545629,15.6476677 100.421188,15.6476677 L96.0948871,15.6476677 C95.8359145,15.6476677 95.7899496,15.7934663 95.639723,16.1063726 C94.9771566,17.4723934 93.6699613,18.019699 91.9457191,18.019699 C89.0185434,18.019699 87.3660512,16.4843274 87.3660512,13.9743483 C87.3660512,11.4643691 89.0185434,9.92675451 91.9457191,9.92675451 C93.6699613,9.92675451 95.0545121,10.4751816 95.7159574,11.8434455 C95.866184,12.1541087 95.9121488,12.3010288 96.1733637,12.3010288 L100.4537,12.3010288 C100.579262,12.3010288 100.682403,12.2000913 100.682403,12.0744802 C100.682403,11.8131642 100.500786,11.2299698 100.137551,10.5671469 C99.3135473,9.06542118 97.2081332,7.09377535 91.9871996,7.09377535 C86.2438363,7.09377535 82.4792035,9.14392813 82.4769613,13.9743483" id="Fill-12" fill="#ffffff"></path>
                <path d="M69.5253016,7.09399965 C64.0341844,7.09399965 60.1664109,9.15312465 60.1652898,13.9790587 C60.1652898,18.8106003 63.9747664,20.8663608 69.6688016,20.8663608 C73.7529461,20.8663608 75.9211414,19.7582913 77.1296805,18.656951 C78.0366453,17.8303851 78.5063836,16.8905448 78.5030203,16.7907288 C78.5007781,16.6651177 78.4010008,16.5619372 78.2743172,16.5619372 L73.8101219,16.5619372 C73.6464422,16.5619372 73.5746922,16.635958 73.5376961,16.678576 C73.2159422,17.0531663 72.2349852,18.2397427 69.8448133,18.2397427 C67.6956766,18.2397427 66.4804109,17.5410309 65.8223289,16.8434406 C65.1507938,16.1256628 65.0599852,15.4045205 65.0599852,15.1308677 C65.0599852,15.0041351 65.1608836,14.9009545 65.2886883,14.9009545 L78.6779109,14.9009545 C78.8012312,14.9009545 78.9021297,14.800017 78.9021297,14.6755274 C78.9021297,9.58491285 75.617325,7.09399965 69.5253016,7.09399965 M73.7955477,12.800333 L65.2886883,12.800333 C65.1608836,12.800333 65.0599852,12.6971524 65.0599852,12.5726628 C65.0599852,12.4246212 65.4647,9.49967674 69.5253016,9.49967674 C73.5836609,9.49967674 74.0220086,12.4246212 74.0220086,12.5726628 C74.0220086,12.6971524 73.9211102,12.800333 73.7955477,12.800333" id="Fill-14" fill="#ffffff"></path>
                <g id="Group-18" transform="translate(267.941406, 6.684418)">
                    <mask id="mask-4" fill="white">
                        <use xlink:href="#path-3"></use>
                    </mask>
                    <g id="Clip-17"></g>
                    <path d="M9.63927617,0.409581944 C4.15040117,0.409581944 0.277022266,2.46870694 0.277022266,7.29464097 C0.277022266,12.1261826 4.08874102,14.1819431 9.78389727,14.1819431 C13.8669207,14.1819431 16.0317527,13.0738736 17.2458973,11.9725333 C18.1506199,11.1459674 18.618116,10.2061271 18.6147527,10.1063111 C18.6147527,9.9807 18.5149754,9.87751944 18.3938973,9.87751944 L13.9263387,9.87751944 C13.7604168,9.87751944 13.690909,9.95154028 13.6505496,9.99415833 C13.3310379,10.3687486 12.352323,11.555325 9.9576668,11.555325 C7.80965117,11.555325 6.59326445,10.8566132 5.93742461,10.1590229 C5.26252617,9.44124514 5.17059648,8.72010278 5.17059648,8.44645 C5.17059648,8.31971736 5.2759793,8.21653681 5.39817852,8.21653681 L18.7907645,8.21653681 C18.917448,8.21653681 19.0205887,8.11559931 19.0205887,7.99110972 C19.0205887,2.90049514 15.7335418,0.409581944 9.63927617,0.409581944 M13.9106434,6.11591528 L5.39817852,6.11591528 C5.2759793,6.11591528 5.17059648,6.01273472 5.17059648,5.88824514 C5.17059648,5.74020347 5.57643242,2.81525903 9.63927617,2.81525903 C13.6987566,2.81525903 14.1382254,5.74020347 14.1382254,5.88824514 C14.1382254,6.01273472 14.0317215,6.11591528 13.9106434,6.11591528" id="Fill-16" fill="#ffffff" mask="url(#mask-4)"></path>
                </g>
                <path d="M103.649153,3.07556562 L108.995649,3.07332257 C109.121212,3.07332257 109.223231,3.1753816 109.223231,3.29874965 L109.223231,9.39537465 L109.279286,9.39537465 C109.978848,8.31758646 112.234489,7.09399965 115.000227,7.09399965 C117.444212,7.09399965 121.175212,7.93065938 121.172971,11.7090865 L121.171848,20.2024163 C121.171848,20.3302705 121.068708,20.4345726 120.946509,20.4345726 L116.675141,20.4345726 C116.548458,20.4345726 116.445317,20.3302705 116.445317,20.2024163 L116.445317,13.2904406 C116.403837,11.5823538 115.357856,10.4787705 113.28047,10.4787705 C111.08761,10.4787705 109.240048,11.3849649 109.223231,14.0811177 L109.223231,20.2024163 C109.223231,20.3302705 109.121212,20.4345726 108.995649,20.4345726 L104.724282,20.4345726 C104.599841,20.4345726 104.4967,20.3302705 104.4967,20.2024163 L104.4967,5.38591285 C104.4967,4.49429826 104.183915,3.93129132 103.523591,3.4905309 C103.46193,3.4501559 103.422692,3.38062118 103.422692,3.29874965 C103.422692,3.1753816 103.523591,3.07556562 103.649153,3.07556562" id="Fill-19" fill="#ffffff"></path>
                <path d="M136.502357,7.09399965 C133.73774,7.09399965 131.482099,8.31758646 130.783658,9.39537465 L130.725361,9.39537465 L130.725361,7.65812813 C130.725361,7.53027396 130.626705,7.43045799 130.500021,7.43045799 L126.226412,7.43045799 C126.10197,7.43045799 126.002193,7.53027396 126.002193,7.65812813 L126.002193,20.2024163 C126.002193,20.3302705 126.10197,20.4345726 126.226412,20.4345726 L130.500021,20.4345726 C130.626705,20.4345726 130.725361,20.3302705 130.725361,20.2024163 L130.725361,14.0799962 C130.747783,11.3849649 132.593103,10.4787705 134.788205,10.4787705 C136.863349,10.4787705 137.908209,11.5823538 137.951931,13.2904406 L137.951931,20.2024163 C137.951931,20.3302705 138.05283,20.4345726 138.178392,20.4345726 L142.453123,20.4345726 C142.578685,20.4345726 142.678462,20.3302705 142.678462,20.2024163 L142.678462,11.7090865 C142.678462,7.93065938 138.948584,7.09399965 136.502357,7.09399965" id="Fill-21" fill="#ffffff"></path>
                <path d="M258.093943,7.09399965 C255.330447,7.09399965 253.075927,8.31758646 252.376365,9.39537465 L252.321431,9.39537465 L252.321431,7.65812813 C252.321431,7.53027396 252.219412,7.43045799 252.093849,7.43045799 L247.821361,7.43045799 C247.698041,7.43045799 247.593779,7.53027396 247.593779,7.65812813 L247.593779,20.2024163 C247.593779,20.3302705 247.698041,20.4345726 247.821361,20.4345726 L252.093849,20.4345726 C252.219412,20.4345726 252.321431,20.3302705 252.321431,20.2024163 L252.321431,14.0799962 C252.342732,11.3849649 254.186931,10.4787705 256.37867,10.4787705 C258.458298,10.4787705 259.504279,11.5823538 259.542396,13.2904406 L259.542396,20.2024163 C259.542396,20.3302705 259.644416,20.4345726 259.77222,20.4345726 L264.043587,20.4345726 C264.172513,20.4345726 264.271174,20.3302705 264.271174,20.2024163 L264.271174,11.7090865 C264.275654,7.93065938 260.541291,7.09399965 258.093943,7.09399965" id="Fill-23" fill="#ffffff"></path>
                <path d="M193.727466,3.07343472 L187.002025,3.07343472 C186.90449,3.07343472 186.819287,3.13511875 186.789017,3.22259792 L182.166748,15.3564069 L177.543357,3.22259792 C177.511966,3.13511875 177.430127,3.07343472 177.330349,3.07343472 L169.310045,3.07567778 C169.181119,3.07567778 169.076857,3.17549375 169.076857,3.29886181 C169.076857,3.38073333 169.117216,3.45026806 169.181119,3.49064306 C169.83808,3.93140347 170.153107,4.49441042 170.153107,5.386025 L170.153107,20.2025285 C170.153107,20.3303826 170.255127,20.4335632 170.38181,20.4335632 L174.650935,20.4335632 C174.777619,20.4335632 174.878517,20.3303826 174.878517,20.2025285 L174.878517,6.75653194 L174.934572,6.75653194 C174.934572,6.75653194 179.906623,20.1913132 179.939134,20.2832785 C179.970525,20.3685146 180.056849,20.4335632 180.152142,20.4335632 L183.954892,20.4335632 C184.05467,20.4335632 184.136509,20.3685146 184.169021,20.2832785 C184.202654,20.1913132 189.173584,6.75653194 189.173584,6.75653194 L189.228517,6.75653194 L189.228517,20.2025285 C189.228517,20.3303826 189.330537,20.4335632 189.45722,20.4335632 L193.727466,20.4335632 C193.853029,20.4335632 193.955048,20.3303826 193.955048,20.2025285 L193.955048,3.29886181 C193.955048,3.17549375 193.853029,3.07343472 193.727466,3.07343472" id="Fill-25" fill="#ffffff"></path>
                <path d="M242.356029,7.43023368 L238.081298,7.43023368 C237.959099,7.43023368 237.85708,7.53004965 237.85708,7.65678229 L237.85708,20.2033135 C237.85708,20.3322892 237.957978,20.4343483 238.081298,20.4343483 L242.356029,20.4343483 C242.482712,20.4343483 242.58249,20.3322892 242.58249,20.2033135 L242.58249,7.65678229 C242.58249,7.53004965 242.482712,7.43023368 242.356029,7.43023368" id="Fill-27" fill="#ffffff"></path>
                <path d="M242.356029,3.07343472 L238.081298,3.07343472 C237.959099,3.07343472 237.85708,3.17549375 237.85708,3.29886181 L237.85708,5.55425417 C237.85708,5.67762222 237.957978,5.78080278 238.081298,5.78080278 L242.356029,5.78080278 C242.482712,5.78080278 242.58249,5.67762222 242.58249,5.55425417 L242.58249,3.29886181 C242.58249,3.17549375 242.482712,3.07343472 242.356029,3.07343472" id="Fill-29" fill="#ffffff"></path>
                <path d="M233.828429,7.59565903 L233.828429,7.58444375 L233.828429,7.40612083 C233.828429,7.28836042 233.740984,7.19527361 233.632238,7.17732917 C233.374386,7.13919722 232.751058,7.09433611 232.108671,7.09433611 C229.427015,7.09433611 227.342902,8.18894722 226.176964,10.2189125 L226.123152,10.2189125 L226.123152,7.65846458 C226.123152,7.52948889 226.023375,7.43079444 225.898933,7.43079444 L221.621961,7.43079444 C221.499761,7.43079444 221.399984,7.52948889 221.399984,7.65846458 L221.399984,20.2027528 C221.399984,20.3294854 221.499761,20.4337875 221.621961,20.4337875 L225.898933,20.4337875 C226.023375,20.4337875 226.123152,20.3294854 226.123152,20.2027528 L226.123152,15.1098951 C226.124273,12.6660861 227.994257,10.0226451 233.544793,11.3460479 C233.707351,11.3853014 233.818339,11.2608118 233.828429,11.1452944 L233.828429,7.59565903 Z" id="Fill-31" fill="#ffffff"></path>
                <path d="M207.911881,7.1323559 C199.242463,7.1323559 199.242463,10.8849878 199.242463,11.0218142 C199.242463,11.0543385 199.305244,11.2046233 199.465561,11.2046233 L203.632666,11.2046233 C203.730201,11.2046233 203.812041,11.1474253 203.844553,11.0644323 C204.391646,9.9462691 205.837857,9.48644271 207.578916,9.48644271 C210.317748,9.48644271 211.348033,10.1201059 211.348033,11.1507899 C211.348033,12.1792309 210.917533,12.3900781 209.46908,12.4865295 L204.449943,12.7983142 C201.574338,12.9665434 198.484602,13.6360955 198.484602,16.746092 C198.482361,19.7327205 201.115811,20.9035955 204.87708,20.9035955 C206.998189,20.9035955 210.003842,20.4976024 211.615975,19.0654115 L211.615975,20.2026406 C211.615975,20.3304948 211.717994,20.4336753 211.844678,20.4336753 L215.899674,20.4336753 C216.022994,20.4336753 216.128377,20.3304948 216.128377,20.2026406 L216.130622,11.4883698 C216.132861,9.09502951 214.681045,7.1323559 207.911881,7.1323559 L207.911881,7.1323559 Z M211.49826,15.2174497 C211.49826,17.411158 208.850236,18.4597865 206.419705,18.4597865 C204.608018,18.4597865 203.375936,17.7992066 203.375936,16.6305747 C203.375936,15.4608212 204.225725,15.048099 205.925303,14.9247309 L208.712342,14.7071545 C209.541951,14.6421059 210.335686,14.5736927 211.128299,14.2854601 C211.411936,14.1878872 211.49826,14.1822795 211.49826,14.4772413 L211.49826,15.2174497 Z" id="Fill-33" fill="#ffffff"></path>
            </g>
        </g>
    </g>
</svg>