<?xml version="1.0" encoding="UTF-8" standalone="no" ?>
<!DOCTYPE svg PUBLIC "-//W3C//DTD SVG 1.1//EN" "http://www.w3.org/Graphics/SVG/1.1/DTD/svg11.dtd">
<svg xmlns="http://www.w3.org/2000/svg" xmlns:xlink="http://www.w3.org/1999/xlink" version="1.1" width="1080" height="1080" viewBox="0 0 1080 1080" xml:space="preserve">
<desc>Created with Fabric.js 5.2.4</desc>
<defs>
</defs>
<g transform="matrix(1 0 0 1 540 540)" id="02da66ce-9236-43e6-9718-8c37dbf87694"  >
<rect style="stroke: none; stroke-width: 1; stroke-dasharray: none; stroke-linecap: butt; stroke-dashoffset: 0; stroke-linejoin: miter; stroke-miterlimit: 4; fill: rgb(255,255,255); fill-rule: nonzero; opacity: 1; visibility: hidden;" vector-effect="non-scaling-stroke"  x="-540" y="-540" rx="0" ry="0" width="1080" height="1080" />
</g>
<g transform="matrix(1 0 0 1 540 540)" id="9e962f84-e413-4138-a095-33d33c523316"  >
</g>
<g transform="matrix(3.19 0 0 3.19 564.92 473.54)"  >
<g style=""   >
		<g transform="matrix(1 0 0 1 -154.7 -54.43)"  >
<path style="stroke: none; stroke-width: 1; stroke-dasharray: none; stroke-linecap: butt; stroke-dashoffset: 0; stroke-linejoin: miter; stroke-miterlimit: 4; fill: rgb(227,6,19); fill-rule: nonzero; opacity: 1;" vector-effect="non-scaling-stroke"  transform=" translate(-14.8, -18.57)" d="M 1.97705 0 L 27.6326 0 L 27.6326 5.61583 L 8.47817 5.61583 L 8.47817 15.3476 L 25.2834 15.3476 L 25.2834 20.6495 L 8.47817 20.6495 L 8.47817 37.1482 L 1.97705 37.1482 L 1.97705 0 Z" stroke-linecap="round" />
</g>
		<g transform="matrix(1 0 0 1 -131.85 -54.43)"  >
<path style="stroke: none; stroke-width: 1; stroke-dasharray: none; stroke-linecap: butt; stroke-dashoffset: 0; stroke-linejoin: miter; stroke-miterlimit: 4; fill: rgb(227,6,19); fill-rule: nonzero; opacity: 1;" vector-effect="non-scaling-stroke"  transform=" translate(-37.65, -18.57)" d="M 34.4012 0 L 40.9024 0 L 40.9024 37.1482 L 34.4012 37.1482 L 34.4012 0 Z" stroke-linecap="round" />
</g>
		<g transform="matrix(1 0 0 1 -107.13 -54.43)"  >
<path style="stroke: none; stroke-width: 1; stroke-dasharray: none; stroke-linecap: butt; stroke-dashoffset: 0; stroke-linejoin: miter; stroke-miterlimit: 4; fill: rgb(227,6,19); fill-rule: nonzero; opacity: 1;" vector-effect="non-scaling-stroke"  transform=" translate(-62.37, -18.57)" d="M 46.2173 0 L 52.9859 0 L 62.3014 29.393 L 62.4061 29.393 L 71.9194 0 L 78.5252 0 L 65.8253 37.1482 L 58.5915 37.1482 L 46.2173 0 Z" stroke-linecap="round" />
</g>
		<g transform="matrix(1 0 0 1 -72.16 -54.43)"  >
<path style="stroke: none; stroke-width: 1; stroke-dasharray: none; stroke-linecap: butt; stroke-dashoffset: 0; stroke-linejoin: miter; stroke-miterlimit: 4; fill: rgb(227,6,19); fill-rule: nonzero; opacity: 1;" vector-effect="non-scaling-stroke"  transform=" translate(-97.34, -18.57)" d="M 83.7819 0 L 110.531 0 L 110.531 5.61583 L 90.283 5.61583 L 90.283 15.3476 L 109.019 15.3476 L 109.019 20.6495 L 90.283 20.6495 L 90.283 31.5207 L 110.891 31.5207 L 110.891 37.1366 L 83.7819 37.1366 L 83.7819 0 Z" stroke-linecap="round" />
</g>
		<g transform="matrix(1 0 0 1 -153.97 -0.95)"  >
<path style="stroke: none; stroke-width: 1; stroke-dasharray: none; stroke-linecap: butt; stroke-dashoffset: 0; stroke-linejoin: miter; stroke-miterlimit: 4; fill: rgb(255,255,255); fill-rule: nonzero; opacity: 1;" vector-effect="non-scaling-stroke"  transform=" translate(-15.53, -72.05)" d="M 1.97705 53.484 L 28.7258 53.484 L 28.7258 59.0999 L 8.47817 59.0999 L 8.47817 68.8316 L 27.2139 68.8316 L 27.2139 74.1335 L 8.47817 74.1335 L 8.47817 85.0048 L 29.0864 85.0048 L 29.0864 90.6206 L 1.97705 90.6206 L 1.97705 53.4724 L 1.97705 53.484 Z" stroke-linecap="round" />
</g>
		<g transform="matrix(1 0 0 1 -120.49 -0.94)"  >
<path style="stroke: none; stroke-width: 1; stroke-dasharray: none; stroke-linecap: butt; stroke-dashoffset: 0; stroke-linejoin: miter; stroke-miterlimit: 4; fill: rgb(255,255,255); fill-rule: nonzero; opacity: 1;" vector-effect="non-scaling-stroke"  transform=" translate(-49.01, -72.06)" d="M 36.3202 53.4841 L 42.8213 53.4841 L 42.8213 85.0165 L 61.7083 85.0165 L 61.7083 90.6323 L 36.3086 90.6323 L 36.3086 53.4841 L 36.3202 53.4841 Z" stroke-linecap="round" />
</g>
		<g transform="matrix(1 0 0 1 -88.19 -0.95)"  >
<path style="stroke: none; stroke-width: 1; stroke-dasharray: none; stroke-linecap: butt; stroke-dashoffset: 0; stroke-linejoin: miter; stroke-miterlimit: 4; fill: rgb(255,255,255); fill-rule: nonzero; opacity: 1;" vector-effect="non-scaling-stroke"  transform=" translate(-81.31, -72.05)" d="M 67.7559 53.484 L 94.5047 53.484 L 94.5047 59.0999 L 74.257 59.0999 L 74.257 68.8316 L 92.9928 68.8316 L 92.9928 74.1335 L 74.257 74.1335 L 74.257 85.0048 L 94.8652 85.0048 L 94.8652 90.6206 L 67.7559 90.6206 L 67.7559 53.4724 L 67.7559 53.484 Z" stroke-linecap="round" />
</g>
		<g transform="matrix(1 0 0 1 -48.22 -0.94)"  >
<path style="stroke: none; stroke-width: 1; stroke-dasharray: none; stroke-linecap: butt; stroke-dashoffset: 0; stroke-linejoin: miter; stroke-miterlimit: 4; fill: rgb(255,255,255); fill-rule: nonzero; opacity: 1;" vector-effect="non-scaling-stroke"  transform=" translate(-121.28, -72.06)" d="M 101.994 53.4841 L 111.159 53.4841 L 121.416 82.5632 L 121.521 82.5632 L 131.511 53.4841 L 140.571 53.4841 L 140.571 90.6323 L 134.384 90.6323 L 134.384 61.9602 L 134.279 61.9602 L 123.975 90.6323 L 118.613 90.6323 L 108.309 61.9602 L 108.205 61.9602 L 108.205 90.6323 L 102.006 90.6323 L 102.006 53.4841 L 101.994 53.4841 Z" stroke-linecap="round" />
</g>
		<g transform="matrix(1 0 0 1 -6.01 -0.95)"  >
<path style="stroke: none; stroke-width: 1; stroke-dasharray: none; stroke-linecap: butt; stroke-dashoffset: 0; stroke-linejoin: miter; stroke-miterlimit: 4; fill: rgb(255,255,255); fill-rule: nonzero; opacity: 1;" vector-effect="non-scaling-stroke"  transform=" translate(-163.49, -72.05)" d="M 149.933 53.484 L 176.682 53.484 L 176.682 59.0999 L 156.434 59.0999 L 156.434 68.8316 L 175.17 68.8316 L 175.17 74.1335 L 156.434 74.1335 L 156.434 85.0048 L 177.042 85.0048 L 177.042 90.6206 L 149.933 90.6206 L 149.933 53.4724 L 149.933 53.484 Z" stroke-linecap="round" />
</g>
		<g transform="matrix(1 0 0 1 29.58 -0.94)"  >
<path style="stroke: none; stroke-width: 1; stroke-dasharray: none; stroke-linecap: butt; stroke-dashoffset: 0; stroke-linejoin: miter; stroke-miterlimit: 4; fill: rgb(255,255,255); fill-rule: nonzero; opacity: 1;" vector-effect="non-scaling-stroke"  transform=" translate(-199.08, -72.06)" d="M 184.008 53.4841 L 190.882 53.4841 L 207.85 80.854 L 207.954 80.854 L 207.954 53.4841 L 214.153 53.4841 L 214.153 90.6323 L 207.28 90.6323 L 190.37 63.3206 L 190.219 63.3206 L 190.219 90.6323 L 184.02 90.6323 L 184.02 53.4841 L 184.008 53.4841 Z" stroke-linecap="round" />
</g>
		<g transform="matrix(1 0 0 1 65.41 -0.94)"  >
<path style="stroke: none; stroke-width: 1; stroke-dasharray: none; stroke-linecap: butt; stroke-dashoffset: 0; stroke-linejoin: miter; stroke-miterlimit: 4; fill: rgb(255,255,255); fill-rule: nonzero; opacity: 1;" vector-effect="non-scaling-stroke"  transform=" translate(-234.91, -72.06)" d="M 219.875 53.4841 L 249.95 53.4841 L 249.95 59.1 L 238.134 59.1 L 238.134 90.6323 L 231.633 90.6323 L 231.633 59.1 L 219.875 59.1 L 219.875 53.4841 Z" stroke-linecap="round" />
</g>
		<g transform="matrix(1 0 0 1 99.22 -0.92)"  >
<path style="stroke: none; stroke-width: 1; stroke-dasharray: none; stroke-linecap: butt; stroke-dashoffset: 0; stroke-linejoin: miter; stroke-miterlimit: 4; fill: rgb(255,255,255); fill-rule: nonzero; opacity: 1;" vector-effect="non-scaling-stroke"  transform=" translate(-268.72, -72.08)" d="M 260.091 78.2495 C 260.091 79.668 260.336 80.8889 260.824 81.8888 C 261.312 82.9003 261.987 83.7142 262.859 84.3653 C 263.731 85.0048 264.72 85.4815 265.848 85.7722 C 266.976 86.0629 268.197 86.214 269.512 86.214 C 270.93 86.214 272.151 86.0512 273.152 85.7257 C 274.163 85.4001 274.978 84.9699 275.594 84.4467 C 276.222 83.9235 276.664 83.3305 276.943 82.6562 C 277.222 81.9818 277.362 81.2958 277.362 80.5982 C 277.362 79.1797 277.036 78.1216 276.396 77.4473 C 275.757 76.7729 275.047 76.2962 274.291 76.0172 C 272.977 75.5288 271.442 75.0754 269.686 74.6336 C 267.93 74.2034 265.778 73.6336 263.208 72.9476 C 261.615 72.5291 260.289 71.9826 259.231 71.3082 C 258.172 70.6339 257.335 69.8781 256.707 69.041 C 256.079 68.2038 255.637 67.3202 255.381 66.39 C 255.125 65.4482 254.986 64.4948 254.986 63.5298 C 254.986 61.6578 255.381 60.0417 256.16 58.6697 C 256.94 57.2977 257.975 56.1583 259.254 55.263 C 260.533 54.3561 261.999 53.6934 263.627 53.2632 C 265.255 52.833 266.906 52.6121 268.569 52.6121 C 270.512 52.6121 272.338 52.8679 274.059 53.3678 C 275.78 53.8678 277.28 54.6235 278.583 55.6351 C 279.885 56.6466 280.92 57.8791 281.676 59.3557 C 282.444 60.8323 282.816 62.5415 282.816 64.4832 L 276.315 64.4832 C 276.141 62.088 275.326 60.4021 273.873 59.4138 C 272.419 58.4255 270.558 57.9256 268.302 57.9256 C 267.534 57.9256 266.755 58.007 265.964 58.1581 C 265.162 58.3093 264.441 58.5767 263.778 58.9371 C 263.115 59.2976 262.568 59.7975 262.138 60.4254 C 261.708 61.0532 261.487 61.8323 261.487 62.7624 C 261.487 64.0763 261.894 65.1111 262.708 65.8552 C 263.522 66.5993 264.592 67.169 265.906 67.5411 C 266.046 67.576 266.592 67.7271 267.546 67.9829 C 268.5 68.2387 269.57 68.5294 270.744 68.8433 C 271.919 69.1572 273.082 69.4596 274.21 69.7502 C 275.338 70.0409 276.141 70.2618 276.629 70.4013 C 277.839 70.785 278.897 71.3082 279.804 71.9593 C 280.711 72.6221 281.455 73.3778 282.072 74.2266 C 282.677 75.0754 283.13 75.9823 283.421 76.959 C 283.712 77.9356 283.863 78.9006 283.863 79.8773 C 283.863 81.9585 283.432 83.7375 282.584 85.2141 C 281.735 86.6907 280.618 87.8883 279.222 88.8301 C 277.839 89.7719 276.257 90.4462 274.489 90.8881 C 272.721 91.3183 270.919 91.5392 269.081 91.5392 C 266.965 91.5392 264.964 91.2834 263.092 90.7602 C 261.219 90.2369 259.591 89.4463 258.196 88.365 C 256.812 87.2953 255.695 85.9117 254.869 84.2258 C 254.032 82.5399 253.602 80.5633 253.567 78.2728 L 260.068 78.2728 L 260.091 78.2495 Z" stroke-linecap="round" />
</g>
		<g transform="matrix(1 0 0 1 -152.69 52.57)"  >
<path style="stroke: none; stroke-width: 1; stroke-dasharray: none; stroke-linecap: butt; stroke-dashoffset: 0; stroke-linejoin: miter; stroke-miterlimit: 4; fill: rgb(255,255,255); fill-rule: nonzero; opacity: 1;" vector-effect="non-scaling-stroke"  transform=" translate(-16.81, -125.57)" d="M 27.0628 118.781 C 26.7837 117.711 26.3999 116.723 25.9231 115.816 C 25.4346 114.909 24.8066 114.13 24.0506 113.479 C 23.2831 112.817 22.3992 112.305 21.3758 111.945 C 20.3523 111.584 19.1661 111.398 17.8054 111.398 C 15.8283 111.398 14.1187 111.793 12.6766 112.596 C 11.2345 113.398 10.0599 114.456 9.16437 115.793 C 8.25723 117.13 7.59433 118.642 7.16402 120.351 C 6.73372 122.048 6.51275 123.781 6.51275 125.56 C 6.51275 127.339 6.73372 129.059 7.16402 130.757 C 7.59433 132.454 8.26886 133.978 9.16437 135.315 C 10.0715 136.652 11.2345 137.722 12.6766 138.512 C 14.1187 139.314 15.8283 139.71 17.8054 139.71 C 19.2591 139.71 20.55 139.454 21.6549 138.954 C 22.7597 138.454 23.7134 137.756 24.5158 136.873 C 25.3183 135.989 25.9347 134.954 26.3883 133.78 C 26.8418 132.606 27.1326 131.338 27.2721 129.978 L 33.6221 129.978 C 33.4825 132.199 33.0057 134.222 32.1916 136.07 C 31.3775 137.908 30.2727 139.5 28.8887 140.826 C 27.5047 142.163 25.8649 143.198 23.9925 143.919 C 22.1201 144.651 20.05 145.012 17.7938 145.012 C 15.0142 145.012 12.5254 144.5 10.3274 143.477 C 8.12931 142.454 6.25689 141.058 4.73337 139.291 C 3.20985 137.524 2.03523 135.454 1.22114 133.106 C 0.407047 130.745 0 128.234 0 125.56 C 0 122.885 0.407047 120.421 1.22114 118.072 C 2.03523 115.712 3.20985 113.654 4.73337 111.886 C 6.25689 110.119 8.12931 108.712 10.3274 107.677 C 12.5254 106.643 15.0142 106.119 17.7938 106.119 C 19.8755 106.119 21.8293 106.41 23.6785 106.98 C 25.516 107.55 27.1442 108.387 28.5398 109.48 C 29.947 110.573 31.0867 111.898 31.9474 113.456 C 32.8196 115.014 33.3546 116.805 33.5639 118.816 L 27.0628 118.816 L 27.0628 118.781 Z" stroke-linecap="round" />
</g>
		<g transform="matrix(1 0 0 1 -112.57 52.53)"  >
<path style="stroke: none; stroke-width: 1; stroke-dasharray: none; stroke-linecap: butt; stroke-dashoffset: 0; stroke-linejoin: miter; stroke-miterlimit: 4; fill: rgb(255,255,255); fill-rule: nonzero; opacity: 1;" vector-effect="non-scaling-stroke"  transform=" translate(-56.93, -125.53)" d="M 56.9284 106.084 C 59.7079 106.084 62.1967 106.608 64.3948 107.642 C 66.5929 108.689 68.4653 110.084 69.9888 111.851 C 71.5123 113.619 72.6869 115.688 73.501 118.037 C 74.3151 120.397 74.7222 122.897 74.7222 125.525 C 74.7222 128.152 74.3151 130.71 73.501 133.071 C 72.6869 135.431 71.5123 137.489 69.9888 139.256 C 68.4653 141.024 66.5929 142.419 64.3948 143.442 C 62.1967 144.465 59.7079 144.977 56.9284 144.977 C 54.1489 144.977 51.6601 144.465 49.462 143.442 C 47.2639 142.419 45.3915 141.024 43.868 139.256 C 42.3445 137.489 41.1699 135.419 40.3558 133.071 C 39.5417 130.71 39.1346 128.199 39.1346 125.525 C 39.1346 122.851 39.5417 120.386 40.3558 118.037 C 41.1699 115.677 42.3445 113.619 43.868 111.851 C 45.3915 110.084 47.2639 108.677 49.462 107.642 C 51.6601 106.608 54.1489 106.084 56.9284 106.084 Z M 56.9284 111.386 C 54.9513 111.386 53.2417 111.782 51.7996 112.584 C 50.3575 113.386 49.1829 114.444 48.2874 115.781 C 47.3802 117.118 46.7173 118.63 46.287 120.339 C 45.8567 122.037 45.6358 123.769 45.6358 125.548 C 45.6358 127.327 45.8567 129.048 46.287 130.745 C 46.7173 132.443 47.3919 133.966 48.2874 135.303 C 49.1945 136.64 50.3575 137.71 51.7996 138.5 C 53.2417 139.303 54.9513 139.698 56.9284 139.698 C 58.9055 139.698 60.6151 139.303 62.0572 138.5 C 63.4993 137.698 64.6623 136.64 65.5694 135.303 C 66.4766 133.966 67.1395 132.454 67.5698 130.745 C 68.0001 129.048 68.221 127.315 68.221 125.548 C 68.221 123.781 68.0001 122.048 67.5698 120.339 C 67.1395 118.642 66.4649 117.118 65.5694 115.781 C 64.6739 114.444 63.4993 113.375 62.0572 112.584 C 60.6151 111.782 58.9055 111.386 56.9284 111.386 Z" stroke-linecap="round" />
</g>
		<g transform="matrix(1 0 0 1 -74.59 52.54)"  >
<path style="stroke: none; stroke-width: 1; stroke-dasharray: none; stroke-linecap: butt; stroke-dashoffset: 0; stroke-linejoin: miter; stroke-miterlimit: 4; fill: rgb(255,255,255); fill-rule: nonzero; opacity: 1;" vector-effect="non-scaling-stroke"  transform=" translate(-94.91, -125.54)" d="M 82.2234 106.968 L 88.7245 106.968 L 88.7245 138.501 L 107.612 138.501 L 107.612 144.116 L 82.2118 144.116 L 82.2118 106.968 L 82.2234 106.968 Z" stroke-linecap="round" />
</g>
		<g transform="matrix(1 0 0 1 -43.15 52.54)"  >
<path style="stroke: none; stroke-width: 1; stroke-dasharray: none; stroke-linecap: butt; stroke-dashoffset: 0; stroke-linejoin: miter; stroke-miterlimit: 4; fill: rgb(255,255,255); fill-rule: nonzero; opacity: 1;" vector-effect="non-scaling-stroke"  transform=" translate(-126.35, -125.54)" d="M 113.659 106.968 L 120.16 106.968 L 120.16 138.501 L 139.047 138.501 L 139.047 144.116 L 113.647 144.116 L 113.647 106.968 L 113.659 106.968 Z" stroke-linecap="round" />
</g>
		<g transform="matrix(1 0 0 1 -10.86 52.53)"  >
<path style="stroke: none; stroke-width: 1; stroke-dasharray: none; stroke-linecap: butt; stroke-dashoffset: 0; stroke-linejoin: miter; stroke-miterlimit: 4; fill: rgb(255,255,255); fill-rule: nonzero; opacity: 1;" vector-effect="non-scaling-stroke"  transform=" translate(-158.64, -125.53)" d="M 145.083 106.968 L 171.832 106.968 L 171.832 112.584 L 151.584 112.584 L 151.584 122.316 L 170.32 122.316 L 170.32 127.618 L 151.584 127.618 L 151.584 138.489 L 172.192 138.489 L 172.192 144.105 L 145.083 144.105 L 145.083 106.957 L 145.083 106.968 Z" stroke-linecap="round" />
</g>
		<g transform="matrix(1 0 0 1 24.76 52.57)"  >
<path style="stroke: none; stroke-width: 1; stroke-dasharray: none; stroke-linecap: butt; stroke-dashoffset: 0; stroke-linejoin: miter; stroke-miterlimit: 4; fill: rgb(255,255,255); fill-rule: nonzero; opacity: 1;" vector-effect="non-scaling-stroke"  transform=" translate(-194.26, -125.57)" d="M 204.512 118.781 C 204.233 117.711 203.849 116.723 203.372 115.816 C 202.884 114.909 202.256 114.13 201.5 113.479 C 200.732 112.817 199.848 112.305 198.825 111.945 C 197.801 111.584 196.615 111.398 195.254 111.398 C 193.277 111.398 191.568 111.793 190.126 112.596 C 188.684 113.398 187.509 114.456 186.613 115.793 C 185.706 117.13 185.043 118.642 184.613 120.351 C 184.183 122.048 183.962 123.781 183.962 125.56 C 183.962 127.339 184.183 129.059 184.613 130.757 C 185.043 132.454 185.718 133.978 186.613 135.315 C 187.521 136.652 188.684 137.722 190.126 138.512 C 191.568 139.314 193.277 139.71 195.254 139.71 C 196.708 139.71 197.999 139.454 199.104 138.954 C 200.209 138.454 201.162 137.756 201.965 136.873 C 202.767 135.989 203.384 134.954 203.837 133.78 C 204.291 132.606 204.582 131.338 204.721 129.978 L 211.071 129.978 C 210.932 132.199 210.455 134.222 209.641 136.07 C 208.827 137.908 207.722 139.5 206.338 140.826 C 204.954 142.163 203.314 143.198 201.442 143.919 C 199.569 144.651 197.499 145.012 195.243 145.012 C 192.463 145.012 189.975 144.5 187.776 143.477 C 185.578 142.454 183.706 141.058 182.182 139.291 C 180.659 137.524 179.484 135.454 178.67 133.106 C 177.856 130.745 177.449 128.234 177.449 125.56 C 177.449 122.885 177.856 120.421 178.67 118.072 C 179.484 115.712 180.659 113.654 182.182 111.886 C 183.706 110.119 185.578 108.712 187.776 107.677 C 189.975 106.643 192.463 106.119 195.243 106.119 C 197.325 106.119 199.278 106.41 201.128 106.98 C 202.965 107.55 204.593 108.387 205.989 109.48 C 207.396 110.573 208.536 111.898 209.396 113.456 C 210.269 115.014 210.804 116.805 211.013 118.816 L 204.512 118.816 L 204.512 118.781 Z" stroke-linecap="round" />
</g>
		<g transform="matrix(1 0 0 1 60.56 52.54)"  >
<path style="stroke: none; stroke-width: 1; stroke-dasharray: none; stroke-linecap: butt; stroke-dashoffset: 0; stroke-linejoin: miter; stroke-miterlimit: 4; fill: rgb(255,255,255); fill-rule: nonzero; opacity: 1;" vector-effect="non-scaling-stroke"  transform=" translate(-230.06, -125.54)" d="M 215.025 106.968 L 245.1 106.968 L 245.1 112.584 L 233.284 112.584 L 233.284 144.116 L 226.783 144.116 L 226.783 112.584 L 215.025 112.584 L 215.025 106.968 Z" stroke-linecap="round" />
</g>
		<g transform="matrix(1 0 0 1 84.74 52.54)"  >
<path style="stroke: none; stroke-width: 1; stroke-dasharray: none; stroke-linecap: butt; stroke-dashoffset: 0; stroke-linejoin: miter; stroke-miterlimit: 4; fill: rgb(255,255,255); fill-rule: nonzero; opacity: 1;" vector-effect="non-scaling-stroke"  transform=" translate(-254.24, -125.54)" d="M 250.985 106.968 L 257.486 106.968 L 257.486 144.116 L 250.985 144.116 L 250.985 106.968 Z" stroke-linecap="round" />
</g>
		<g transform="matrix(1 0 0 1 113.34 52.53)"  >
<path style="stroke: none; stroke-width: 1; stroke-dasharray: none; stroke-linecap: butt; stroke-dashoffset: 0; stroke-linejoin: miter; stroke-miterlimit: 4; fill: rgb(255,255,255); fill-rule: nonzero; opacity: 1;" vector-effect="non-scaling-stroke"  transform=" translate(-282.84, -125.53)" d="M 282.839 106.084 C 285.619 106.084 288.108 106.608 290.306 107.642 C 292.504 108.689 294.376 110.084 295.9 111.851 C 297.423 113.619 298.598 115.688 299.412 118.037 C 300.226 120.397 300.633 122.897 300.633 125.525 C 300.633 128.152 300.226 130.71 299.412 133.071 C 298.598 135.431 297.423 137.489 295.9 139.256 C 294.376 141.024 292.504 142.419 290.306 143.442 C 288.108 144.465 285.619 144.977 282.839 144.977 C 280.06 144.977 277.571 144.465 275.373 143.442 C 273.175 142.419 271.303 141.024 269.779 139.256 C 268.256 137.489 267.081 135.419 266.267 133.071 C 265.453 130.71 265.046 128.199 265.046 125.525 C 265.046 122.851 265.453 120.386 266.267 118.037 C 267.081 115.677 268.256 113.619 269.779 111.851 C 271.303 110.084 273.175 108.677 275.373 107.642 C 277.571 106.608 280.06 106.084 282.839 106.084 Z M 282.839 111.386 C 280.862 111.386 279.153 111.782 277.711 112.584 C 276.269 113.386 275.094 114.444 274.198 115.781 C 273.291 117.118 272.628 118.63 272.198 120.339 C 271.768 122.037 271.547 123.769 271.547 125.548 C 271.547 127.327 271.768 129.048 272.198 130.745 C 272.628 132.443 273.303 133.966 274.198 135.303 C 275.106 136.64 276.269 137.71 277.711 138.5 C 279.153 139.303 280.862 139.698 282.839 139.698 C 284.817 139.698 286.526 139.303 287.968 138.5 C 289.41 137.698 290.573 136.64 291.48 135.303 C 292.388 133.966 293.05 132.454 293.481 130.745 C 293.911 129.048 294.132 127.315 294.132 125.548 C 294.132 123.781 293.911 122.048 293.481 120.339 C 293.05 118.642 292.376 117.118 291.48 115.781 C 290.585 114.444 289.41 113.375 287.968 112.584 C 286.526 111.782 284.817 111.386 282.839 111.386 Z" stroke-linecap="round" />
</g>
		<g transform="matrix(1 0 0 1 153.44 52.54)"  >
<path style="stroke: none; stroke-width: 1; stroke-dasharray: none; stroke-linecap: butt; stroke-dashoffset: 0; stroke-linejoin: miter; stroke-miterlimit: 4; fill: rgb(255,255,255); fill-rule: nonzero; opacity: 1;" vector-effect="non-scaling-stroke"  transform=" translate(-322.94, -125.54)" d="M 307.867 106.968 L 314.74 106.968 L 331.708 134.338 L 331.813 134.338 L 331.813 106.968 L 338.012 106.968 L 338.012 144.116 L 331.138 144.116 L 314.229 116.805 L 314.077 116.805 L 314.077 144.116 L 307.879 144.116 L 307.879 106.968 L 307.867 106.968 Z" stroke-linecap="round" />
</g>
</g>
</g>
</svg>