<svg width="80" height="81" viewBox="0 0 80 81" fill="none" xmlns="http://www.w3.org/2000/svg">
<path d="M40.0772 0.549805C18.2037 0.549805 0.404297 18.3853 0.404297 40.3032C0.404297 62.221 18.2037 80.0565 40.0772 80.0565C61.9507 80.0565 79.75 62.221 79.75 40.3032C79.75 18.3853 61.9507 0.549805 40.0772 0.549805ZM40.0772 77.3741C24.4029 77.3741 11.0064 67.5387 5.62904 53.715H42.9772C45.3489 53.715 47.2744 55.6445 47.2744 58.021C47.2744 60.3975 45.3489 62.3269 42.9772 62.3269C41.2513 62.3269 39.8423 60.9151 39.8423 59.1857H37.1654C37.1654 62.3975 39.7719 65.0093 42.9772 65.0093C46.8165 65.0093 49.9514 61.8798 49.9514 58.021C49.9514 54.1621 46.8165 51.0327 42.9772 51.0327H4.67802C3.84441 48.2679 3.35128 45.362 3.18691 42.3738H24.8256C31.9054 42.3738 37.6703 36.5972 37.6703 29.503C37.6703 22.4089 31.9054 16.6323 24.8256 16.6323C18.3798 16.6323 13.1433 21.8912 13.1433 28.3383H15.8202C15.8202 23.3618 19.8591 19.3029 24.8373 19.3029C30.4495 19.3029 35.0168 23.8795 35.0168 29.503C35.0168 35.1266 30.4495 39.7031 24.8373 39.7031H3.11647C3.12821 38.6208 3.17517 37.5502 3.28084 36.4913H24.8373C28.6766 36.4913 31.8115 33.3619 31.8115 29.503C31.8115 25.6442 28.6766 22.5147 24.8373 22.5147C21.632 22.5147 19.0255 25.1265 19.0255 28.3383H21.7025C21.7025 26.6089 23.1114 25.1971 24.8373 25.1971C27.209 25.1971 29.1346 27.1265 29.1346 29.503C29.1346 31.8795 27.209 33.809 24.8373 33.809H3.69178C6.76793 16.4558 21.9021 3.22042 40.0889 3.22042C51.9473 3.22042 62.5025 8.86754 69.2771 17.5853C67.7742 16.9617 66.1187 16.6088 64.3928 16.6088C57.947 16.6088 52.7105 21.8677 52.7105 28.3148H55.3874C55.3874 23.3383 59.4263 19.2794 64.4045 19.2794C70.0167 19.2794 74.584 23.8559 74.584 29.4795C74.584 35.1031 70.0167 39.6796 64.4045 39.6796H38.7035V42.362H64.4045C69.9815 42.362 74.7249 38.7855 76.4978 33.7972C76.8735 35.9031 77.0966 38.0678 77.0966 40.2796C77.0966 60.7269 60.5065 77.3506 40.1006 77.3506L40.0772 77.3741Z" fill="#53D0BF"/>
</svg>
