<svg width="80" height="80" viewBox="0 0 80 80" fill="none" xmlns="http://www.w3.org/2000/svg">
<path d="M77.0856 25.5575C73.2932 15.6279 65.8612 7.78079 56.1748 3.45134C36.1799 -5.48993 12.6509 3.54546 3.71599 23.581C-0.604704 33.2869 -0.898226 44.0988 2.89412 54.0283C6.68647 63.9578 14.1185 71.805 23.8049 76.1344C29.0413 78.4756 34.5244 79.5815 39.9253 79.5815C55.1299 79.5815 69.6652 70.7932 76.252 56.0048C80.5726 46.2988 80.8662 35.487 77.0738 25.5575H77.0856ZM67.5988 15.0279C66.5304 16.5809 64.781 17.6044 62.785 17.6044C59.521 17.6044 56.8676 14.8985 56.8676 11.5808C56.8676 10.0396 57.4429 8.62786 58.3821 7.56903C61.8692 9.55728 64.9688 12.0867 67.5988 15.0279ZM6.16987 24.6751C12.3104 10.8867 25.8713 2.68663 40.0544 2.68663C45.0913 2.68663 50.2104 3.72193 55.0947 5.91019C55.3882 6.0396 55.6817 6.19255 55.9752 6.32196C54.8716 7.7808 54.2023 9.60434 54.2023 11.5808C54.2023 16.3809 58.0534 20.2868 62.7968 20.2868C65.4385 20.2868 67.7984 19.0515 69.3717 17.1456C71.5321 19.9692 73.2932 23.1104 74.5965 26.5222C75.0896 27.8045 75.5005 29.1104 75.841 30.4163L65.5207 31.7222L57.9829 37.0752L51.2201 31.2046L43.2949 17.7691H34.7123L31.8475 25.5457L26.2118 27.3104L14.5999 38.3341L12.8153 36.0046L2.96456 38.7929C3.09371 33.9928 4.17389 29.2163 6.18161 24.6868L6.16987 24.6751ZM4.72572 51.1342C3.71599 47.993 3.14068 44.7812 2.98805 41.5458L11.7821 39.0635L18.3218 47.6165L31.2839 51.1342H4.71398H4.72572ZM26.5757 47.0753L19.8951 45.2635L16.2202 40.4517L27.5737 29.6634L33.8787 27.6986L35.8394 22.3692L38.4224 32.1222L42.7548 34.887L43.7646 39.2046L46.3711 38.5929L45.1148 33.2163L40.7471 30.4281L38.1054 20.4397H41.7569L49.1302 32.9458L55.7287 38.6752L51.7015 41.5341L26.5757 47.0753ZM64.2761 67.8049H54.2376V70.4873H60.7891C50.5274 77.4403 37.0252 79.0992 24.9085 73.6873C18.04 70.6167 12.3926 65.6402 8.52981 59.3696H38.6338V56.6872H7.02696C6.55732 55.7578 6.1229 54.793 5.72371 53.8048H74.3029C74.1503 54.1695 74.0094 54.546 73.8451 54.9107C73.575 55.5107 73.2932 56.1107 72.9997 56.6872H41.3929V59.3696H71.4851C70.8628 60.3696 70.2053 61.3225 69.5126 62.2519H60.566V64.9343H67.2701C66.3308 65.9579 65.3446 66.9108 64.3114 67.8167L64.2761 67.8049ZM75.2657 51.1224H41.5455L32.1527 48.5812L52.4647 44.0753H64.9454L73.6807 39.9223L72.5301 37.4987L64.3348 41.3929H56.5153L66.5069 34.2869L76.4163 33.0281C77.5435 39.0517 77.156 45.24 75.254 51.1106L75.2657 51.1224Z" fill="#D7B254"/>
</svg>
