<svg width="79" height="80" viewBox="0 0 79 80" fill="none" xmlns="http://www.w3.org/2000/svg">
<path d="M39.5 0.377441C17.7227 0.377441 0 18.1001 0 39.8774C0 61.6547 17.7227 79.3774 39.5 79.3774C61.2773 79.3774 79 61.6547 79 39.8774C79 18.1001 61.2773 0.377441 39.5 0.377441ZM39.5 76.7214C37.0437 76.7214 34.658 76.4746 32.3428 76.0162L31.9902 74.747C31.4613 72.8196 31.1322 70.9392 30.9677 69.1293C30.8737 66.6965 31.0382 63.3001 31.7904 58.7049C33.1654 52.9462 35.845 47.6458 38.4775 42.4395C40.781 37.8913 42.9552 33.5899 44.2127 29.1239C45.8581 23.3065 45.1999 17.0777 43.9659 11.9771C49.2663 23.1772 48.3613 32.2854 47.1156 44.7195C45.341 62.4304 50.4533 70.1518 54.5666 73.4777C49.9597 75.5461 44.8709 76.7331 39.5 76.7331V76.7214ZM10.824 62.9593C12.4341 54.3212 15.7718 46.8466 17.6404 43.1211C25.115 28.2425 23.9045 14.9975 22.0829 7.41716C22.0946 7.41716 22.1181 7.40541 22.1299 7.39366C28.0649 23.4475 24.7977 34.7064 21.3425 46.5763C20.8724 48.1864 20.4023 49.82 19.9439 51.4654C17.7227 59.5158 18.2516 66.1207 19.2505 70.6101C16.0656 68.5064 13.2215 65.9209 10.8358 62.9475L10.824 62.9593ZM38.501 3.08051C40.0641 6.51223 44.8944 18.394 42.0385 28.5011C40.8398 32.7555 38.7126 36.9628 36.4561 41.4053C36.08 42.1339 35.7157 42.8743 35.3396 43.6265C39.2885 28.5833 30.6269 14.0455 24.6096 6.20666C28.8758 4.31452 33.565 3.22154 38.501 3.09226V3.08051ZM58.4802 8.35736C61.1715 12.1416 64.2272 19.2284 59.4439 28.7479C52.7685 42.0634 47.1156 56.2956 56.0239 71.6796C52.5217 68.8355 47.6562 61.7723 49.3486 44.9192C50.8529 29.8761 51.9223 18.8053 41.4627 3.11577C47.668 3.44483 53.4502 5.30172 58.4802 8.34561V8.35736ZM15.619 42.1104C13.8444 45.6479 10.7888 52.4878 9.01413 60.55C4.99479 54.6503 2.6443 47.5283 2.6443 39.8774C2.6443 26.7264 9.59 15.1973 19.9909 8.67468C21.601 16.0317 22.4707 28.4541 15.619 42.1104ZM22.1064 52.0765C22.5647 50.4311 23.0348 48.8211 23.5049 47.211C26.6781 36.3164 29.6867 25.9273 25.9612 12.0006C31.2028 20.0393 36.4444 31.8388 32.9539 43.8028C31.238 49.679 30.1568 54.5563 29.5104 58.5638C28.7583 61.8898 28.3939 65.392 28.6995 69.094C28.8288 72.9371 29.5339 74.7822 29.816 75.3816C27.0894 74.6412 24.4804 73.6187 22.0476 72.3025C20.8371 68.2596 19.6266 61.0789 22.1181 52.0765H22.1064ZM61.4653 29.7586C65.3201 22.0607 64.474 15.7026 62.5466 11.1779C70.9378 17.9356 76.3322 28.2778 76.3322 39.8774C76.3322 53.24 69.1632 64.9219 58.492 71.3858C49.4778 56.6012 54.9662 42.745 61.4653 29.7703V29.7586Z" fill="#E30613"/>
</svg>
