<svg width="79" height="80" viewBox="0 0 79 80" fill="none" xmlns="http://www.w3.org/2000/svg">
<path d="M62.7653 56.7619C61.0863 57.1501 60.0296 58.8325 60.4171 60.5266C60.8045 62.209 62.4835 63.2678 64.1742 62.8796C65.8532 62.4914 66.9099 60.809 66.5224 59.1148C66.135 57.4325 64.456 56.3736 62.7653 56.7619Z" fill="#9E4EA4"/>
<path d="M56.343 16.3615C58.0219 15.9733 59.0786 14.2909 58.6912 12.5968C58.3037 10.9144 56.6247 9.85557 54.934 10.2438C53.2551 10.632 52.1984 12.3144 52.5858 14.0085C52.9733 15.7027 54.6523 16.7498 56.343 16.3615Z" fill="#9E4EA4"/>
<path d="M8.12277 41.8087C6.4438 42.197 5.38711 43.8794 5.77457 45.5735C6.16202 47.2559 7.84098 48.3147 9.53169 47.9265C11.2107 47.5382 12.2673 45.8558 11.8799 44.1617C11.4924 42.4793 9.81347 41.4205 8.12277 41.8087Z" fill="#9E4EA4"/>
<path d="M77.7352 31.1027C75.3753 20.8438 69.1643 12.1261 60.2646 6.54953C51.3649 0.972998 40.8098 -0.791721 30.5834 1.57301C20.3452 3.93774 11.6451 10.1613 6.07986 19.0791C0.514622 28.0086 -1.24652 38.5616 1.11342 48.8205C5.30496 67.0207 21.531 79.362 39.4243 79.362C42.3478 79.362 45.3066 79.0326 48.2771 78.3503C58.5152 75.9855 67.2153 69.7619 72.7805 60.8324C78.3458 51.9029 80.1069 41.3499 77.747 31.091L77.7352 31.1027ZM70.5263 59.4324C65.3367 67.7619 57.2237 73.562 47.6783 75.762C27.9768 80.3268 8.24021 67.9619 3.69644 48.2205C1.48913 38.6557 3.13287 28.8086 8.33414 20.4791C13.5237 12.1496 21.6367 6.34951 31.1821 4.14949C33.9413 3.51419 36.7356 3.19654 39.5065 3.19654C46.2928 3.19654 52.9735 5.10246 58.8675 8.79661C67.1801 13.9967 72.9684 22.1262 75.164 31.691C77.3713 41.2558 75.7275 51.1029 70.538 59.4324H70.5263Z" fill="#9E4EA4"/>
<path d="M64.5384 35.55C65.4776 34.8206 65.959 33.597 65.6772 32.3735C65.3602 31.0205 64.2214 30.0911 62.9181 29.9735C59.114 21.0087 50.4257 14.8792 40.5632 14.4321C39.6826 11.4439 36.63 9.5968 33.5656 10.3027C30.6421 10.9733 28.7518 13.7262 29.0218 16.6322C17.9853 21.5616 11.7977 33.797 14.5451 45.7266C15.684 50.6796 18.2318 55.0796 21.8833 58.5385C21.4606 59.6208 21.3432 60.8326 21.6132 62.0444C22.2472 64.7856 24.6894 66.6444 27.3898 66.6444C27.8242 66.6444 28.2821 66.5974 28.7283 66.4915C30.0668 66.1856 31.1822 65.4209 31.9805 64.4209C34.3992 65.1621 36.8883 65.5503 39.3891 65.5503C41.3146 65.5503 43.2519 65.3268 45.1539 64.8915C51.7994 63.3503 57.4468 59.315 61.063 53.5149C64.4327 48.1031 65.6303 41.7736 64.5266 35.5382L64.5384 35.55ZM32.1097 14.338C32.5793 13.5968 33.2955 13.0792 34.1526 12.8792C34.3992 12.8204 34.6457 12.7968 34.8923 12.7968C35.5028 12.7968 36.1016 12.9615 36.63 13.3027C37.3697 13.7733 37.8863 14.491 38.0859 15.3498C38.2855 16.2086 38.1328 17.091 37.6749 17.8322C37.217 18.5734 36.4891 19.091 35.632 19.291C33.8708 19.7028 32.1097 18.5969 31.6987 16.8322C31.4992 15.9733 31.6518 15.091 32.1097 14.3498V14.338ZM28.1295 63.9032C26.3683 64.315 24.5954 63.2091 24.1962 61.4444C23.9966 60.5856 24.1493 59.7032 24.6072 58.962C25.0768 58.2208 25.793 57.7032 26.6501 57.5032C26.8967 57.4443 27.1432 57.4208 27.3898 57.4208C28.0003 57.4208 28.5991 57.5855 29.1275 57.9267C29.8672 58.3855 30.3838 59.115 30.5834 59.9738C30.9943 61.7385 29.8906 63.5032 28.1295 63.915V63.9032ZM44.5669 62.3032C40.7745 63.1856 36.8531 63.0797 33.1546 62.0209C33.3542 61.1738 33.3777 60.2797 33.1781 59.3738C32.4384 56.1855 29.2566 54.1855 26.0631 54.9267C25.0299 55.162 24.1493 55.6796 23.4213 56.3502C20.2982 53.2914 18.1261 49.4443 17.1282 45.1266C14.686 34.5265 20.1104 23.6558 29.8437 19.1616C30.9121 20.9146 32.8259 22.0322 34.904 22.0322C35.3385 22.0322 35.7964 21.9852 36.2425 21.8793C38.6377 21.3263 40.3519 19.3851 40.7511 17.091C49.3924 17.5851 57.0241 23.0087 60.429 30.8676C59.7011 31.6088 59.3371 32.6911 59.5954 33.7853C59.8772 35.0088 60.8282 35.8794 61.9788 36.1382C62.9298 41.6795 61.8497 47.3148 58.8557 52.1267C55.6152 57.3149 50.5548 60.9385 44.6021 62.315L44.5669 62.3032Z" fill="#9E4EA4"/>
<path d="M50.8482 37.3261C49.3923 31.0084 43.0874 27.0554 36.7824 28.5143C35.667 28.7731 34.6338 29.1849 33.6828 29.7261C30.1723 28.4202 26.0042 27.5143 24.5601 29.8319C23.3742 31.7378 25.0062 34.6085 27.9532 37.5732C27.6127 39.185 27.601 40.9026 28.0002 42.6085C28.7046 45.6674 30.5597 48.2674 33.2132 49.9263C35.1035 51.1027 37.2286 51.7145 39.4007 51.7145C40.2813 51.7145 41.1736 51.6086 42.0659 51.4086C43.7449 51.0204 45.2829 50.2674 46.5979 49.2439C46.9736 49.3733 47.3376 49.491 47.6898 49.6086C49.2866 50.091 50.6486 50.3263 51.764 50.3263C53.3373 50.3263 54.4292 49.8557 55.0162 48.891C56.1903 47.0086 54.8753 44.2321 51.1182 40.6321C51.1769 39.5262 51.0947 38.4085 50.8364 37.3026L50.8482 37.3261ZM37.3812 31.1025C38.0622 30.9496 38.7432 30.8673 39.4242 30.8673C43.557 30.8673 47.3024 33.7143 48.2769 37.9144C48.8287 40.2791 48.4178 42.7262 47.1263 44.785C46.8093 45.3027 46.4336 45.7733 46.0344 46.2086C43.8388 45.338 41.1736 44.0203 38.0974 42.0909C35.0213 40.1732 32.6848 38.3497 30.9354 36.7497C31.9686 33.9967 34.3168 31.7967 37.3812 31.0908V31.1025ZM26.8026 31.2437C26.9552 31.079 28.188 30.7967 31.135 31.679C30.231 32.5849 29.4795 33.6202 28.916 34.7614C27.2722 32.9379 26.65 31.6555 26.8026 31.2437ZM41.4671 48.8321C39.1072 49.3851 36.665 48.9733 34.6104 47.6792C32.5557 46.385 31.1233 44.3733 30.5714 42.0085C30.3953 41.2556 30.3366 40.5026 30.3484 39.7615C32.2622 41.3732 34.446 42.9497 36.6885 44.338C39.025 45.7968 41.3732 47.0557 43.5687 48.0439C42.9113 48.3851 42.2068 48.6557 41.4554 48.8204L41.4671 48.8321ZM52.7972 47.491C52.4919 47.8086 51.0713 47.8086 48.7231 47.138C48.9579 46.8321 49.181 46.5145 49.3806 46.1851C49.8619 45.4203 50.2259 44.6203 50.5194 43.785C52.6446 46.0792 52.8794 47.2792 52.8089 47.4792L52.7972 47.491Z" fill="#9E4EA4"/>
</svg>
