<svg width="79" height="81" viewBox="0 0 79 81" fill="none" xmlns="http://www.w3.org/2000/svg">
<path d="M79 40.3774C79 18.326 61.2758 0.377441 39.5 0.377441C17.7242 0.377441 0 18.326 0 40.3774C0 62.4289 17.7242 80.3774 39.5 80.3774C61.2758 80.3774 79 62.4289 79 40.3774ZM39.5 77.6816C30.1942 77.6816 21.7057 74.1463 15.2139 68.3526C16.7551 68.8374 18.3664 69.1093 19.9894 69.1093C20.5264 69.1093 21.0636 69.0857 21.6006 69.0266C25.7106 68.6127 29.587 66.4844 32.2142 63.1856C34.7479 60.0168 35.9038 56.1149 35.4834 52.1894C35.0748 48.4531 33.1599 44.9651 30.2292 42.6003C27.427 40.3538 23.9942 39.3369 20.5381 39.7626C17.2805 40.1646 14.2448 41.9145 12.2248 44.5749C10.3099 47.0934 9.48094 50.1557 9.8896 53.2063C10.2749 56.0795 11.8278 58.728 14.1397 60.4661C16.2997 62.0978 18.9035 62.7599 21.4839 62.3461C23.9008 61.9559 26.0842 60.5725 27.497 58.5507C28.7931 56.6825 29.2835 54.4596 28.8748 52.284C28.5012 50.2858 27.2752 48.4531 25.5938 47.3535C24.0643 46.3603 22.2779 46.041 20.5732 46.4667C19.0086 46.8569 17.6191 47.9329 16.8602 49.3517C16.1947 50.5932 16.0779 51.9884 16.5333 53.2654C16.9069 54.3414 17.7242 55.2282 18.7283 55.6538C19.6624 56.044 20.7016 56.0085 21.6357 55.5592L20.5031 53.1353C20.2346 53.2654 19.9894 53.2772 19.7442 53.1708C19.4289 53.0407 19.1487 52.7333 19.0202 52.3668C18.7634 51.6455 18.9735 51.0189 19.1837 50.6169C19.5924 49.8601 20.363 49.269 21.2037 49.0561C22.4764 48.7369 23.5155 49.1744 24.1577 49.6C25.2436 50.3094 26.0375 51.4918 26.2711 52.7806C26.5396 54.235 26.2127 55.7366 25.3253 57.0017C24.3212 58.4442 22.7682 59.4256 21.0635 59.6976C19.1954 59.9932 17.2922 59.5084 15.7043 58.3023C13.9528 56.9899 12.7969 54.9917 12.4933 52.8279C12.1781 50.4868 12.8203 48.1339 14.3031 46.1948C15.9027 44.1019 18.2847 42.7186 20.8417 42.4111C23.5856 42.0801 26.3294 42.8841 28.5712 44.6931C30.9531 46.6086 32.5177 49.4463 32.8447 52.4732C33.195 55.6893 32.2375 58.8936 30.1592 61.4948C27.9641 64.2379 24.7532 66.0115 21.3321 66.3544C17.7242 66.7209 14.1514 65.5976 11.244 63.1856C8.21993 60.6671 6.27002 56.9781 5.90807 53.0881C5.53443 48.997 6.80713 44.9533 9.49262 41.6781C12.2832 38.2846 16.3348 36.1327 20.6082 35.7543C23.5389 35.4942 26.3761 36.0263 28.9215 37.1732V37.1968C28.9215 37.1968 29.0383 37.2441 29.0967 37.2678C34.5494 39.8099 38.6476 45.1897 39.3832 51.7047C39.7102 54.9562 40.8194 58.1368 42.7576 60.9391C45.6182 65.0774 50.1252 67.9506 55.0992 68.8137C56.1734 69.0029 57.2592 69.0975 58.3218 69.0975C60.26 69.0975 62.1632 68.7783 63.9613 68.1752C57.446 74.0635 48.8875 77.6698 39.4883 77.6698L39.5 77.6816ZM28.221 4.8705C26.4579 6.4076 25.0217 8.31123 24.0526 10.4868C22.3479 14.3059 22.2428 18.7635 23.7374 22.7126C25.1735 26.5081 27.9407 29.4877 31.5136 31.0721C34.9113 32.5855 38.8578 32.6565 42.3373 31.2494C45.6649 29.9134 48.2453 27.4067 49.6114 24.167C50.8958 21.1046 50.9192 17.5693 49.6581 14.4714C48.4672 11.5391 46.2604 9.28077 43.4465 8.11021C40.796 7.0106 37.7603 7.04607 35.1215 8.20481C32.6462 9.2926 30.7663 11.2435 29.8323 13.7147C28.9565 16.0204 29.0383 18.6452 30.0774 20.8918C31.0232 22.9609 32.6812 24.5099 34.7478 25.2311C36.6277 25.8933 38.8228 25.7395 40.5975 24.8173C42.2205 23.9778 43.3764 22.5708 43.8785 20.8563C44.3339 19.2837 44.1004 17.5338 43.2597 16.1504C42.5241 14.9444 41.3915 14.1522 40.0721 13.9039C38.9162 13.6911 37.5968 14.034 36.6977 14.767C35.9622 15.3819 35.5535 16.2214 35.5418 17.1436L38.1806 17.1791C38.1806 17.12 38.1806 16.9899 38.3791 16.8362C38.671 16.5879 39.2081 16.4697 39.5934 16.5288C40.3407 16.6707 40.7727 17.1555 41.0062 17.5456C41.4499 18.2787 41.5783 19.2483 41.3331 20.0996C40.9712 21.3765 40.0721 22.0742 39.3832 22.4289C38.239 23.0201 36.8262 23.1265 35.6119 22.689C34.2341 22.2042 33.1132 21.1637 32.471 19.7449C31.7354 18.1486 31.6771 16.2923 32.2959 14.6606C32.9731 12.8752 34.3509 11.4445 36.1723 10.6523C38.1689 9.77738 40.4574 9.75372 42.454 10.5814C44.6024 11.4682 46.2954 13.2181 47.2179 15.4765C48.2103 17.924 48.1986 20.7026 47.1828 23.1028C46.097 25.6686 44.042 27.6786 41.3682 28.7428C38.5309 29.8779 35.3316 29.8306 32.5761 28.6009C29.6571 27.3003 27.392 24.8646 26.2127 21.7313C24.9633 18.4324 25.0568 14.7316 26.4695 11.5628C27.9524 8.21663 30.7079 5.63903 34.2224 4.30294C37.8887 2.90773 42.0103 3.04963 45.5248 4.68131C49.2145 6.39577 52.04 9.52908 53.4879 13.5255C54.9941 17.6639 54.8189 22.2988 52.9975 26.2361C51.7481 28.9438 49.8566 31.1785 47.5798 32.8338C47.5798 32.8338 47.5681 32.8338 47.5564 32.8457C42.6525 36.4046 35.9505 37.3387 29.984 34.7138C27.0417 33.3777 23.7607 32.7629 20.398 33.0703C15.4357 33.5078 10.7303 36.0145 7.48434 39.9518C5.44103 42.4348 4.10995 45.308 3.5495 48.3467C2.98905 45.7691 2.6738 43.0969 2.6738 40.3538C2.6738 23.765 13.4274 9.69461 28.2326 4.84685L28.221 4.8705ZM35.9271 38.864C36.3241 38.8876 36.7211 38.9231 37.1064 38.9231C38.9979 38.9231 40.8778 38.6512 42.6759 38.1427C41.4149 40.0937 40.4925 42.2101 39.932 44.4212C38.8928 42.3402 37.5384 40.4602 35.9271 38.864ZM48.3971 57.4747C50.3704 60.135 53.3828 61.9204 56.6754 62.3579C59.7812 62.7836 62.817 61.9796 65.2106 60.0878C67.4758 58.3142 68.9586 55.6302 69.2972 52.7333C69.6125 50.0257 68.8769 47.4008 67.2306 45.3553C65.6893 43.428 63.4125 42.1983 60.9722 41.9736C58.7187 41.7608 56.582 42.4466 54.924 43.8891C53.4061 45.2134 52.4487 47.2116 52.3436 49.2335C52.2619 51.078 52.8807 52.8043 54.095 54.0812C55.2043 55.2636 56.7805 55.9258 58.4268 55.8903C59.8163 55.8548 61.0656 55.2518 61.9413 54.2231C62.6769 53.3482 63.0155 52.1421 62.8404 50.9952C62.6886 49.9666 62.1398 49.1034 61.2991 48.5595L59.8863 50.8179C59.9564 50.8652 60.1782 51.0071 60.2366 51.3854C60.295 51.752 60.1666 52.1894 59.933 52.4732C59.4427 53.0526 58.8005 53.1945 58.3568 53.2063C57.5978 53.2063 56.6171 52.8516 56.0099 52.2131C55.0992 51.2554 54.9474 50.1203 54.9941 49.3399C55.0525 48.0393 55.6713 46.7505 56.6521 45.8992C57.7613 44.9296 59.2091 44.4803 60.7387 44.6222C62.4667 44.7759 64.0897 45.6509 65.1756 47.0224C66.3665 48.5122 66.892 50.4277 66.6701 52.4141C66.4249 54.6015 65.2924 56.6234 63.5877 57.9713C61.7545 59.4138 59.4193 60.0286 57.014 59.6976C54.422 59.3429 52.0517 57.9476 50.4988 55.8548C48.8408 53.6201 48.1636 50.806 48.5839 47.9447C49.0276 44.8941 50.674 42.1037 53.1026 40.3065C55.6713 38.391 58.8939 37.6343 62.1632 38.1546C65.6076 38.7103 68.7251 40.6376 70.7334 43.4635C72.8467 46.4431 73.6757 50.1439 73.0569 53.8921C72.4147 57.8058 70.2313 61.3529 67.0905 63.6113C63.7745 65.9878 59.6762 66.8983 55.5429 66.177C51.2461 65.4203 47.3696 62.9491 44.9177 59.402C43.2363 56.9663 42.2789 54.2113 41.9987 51.3972C41.9987 51.3972 41.9987 51.3618 41.9987 51.3499C41.3915 45.2725 43.9252 38.9231 49.1444 34.9976L49.121 34.9621C51.7481 33.0467 53.9549 30.5045 55.3911 27.3831C57.4928 22.8072 57.7029 17.4274 55.9632 12.6151C54.8189 9.46995 52.9274 6.79777 50.4988 4.75225C65.4558 9.50543 76.3379 23.6704 76.3379 40.3656C76.3379 42.9905 76.0576 45.5563 75.5439 48.0275C75.0885 45.8282 74.2011 43.7472 72.8818 41.9027C70.4648 38.5093 66.7168 36.18 62.5835 35.5178C58.6137 34.8794 54.6905 35.8134 51.538 38.1546C48.5489 40.3774 46.5173 43.8064 45.9685 47.5663C45.4431 51.1489 46.3071 54.6724 48.3855 57.4865L48.3971 57.4747Z" fill="#007FC8"/>
</svg>
