<svg width="98" height="45" viewBox="0 0 98 45" fill="none" xmlns="http://www.w3.org/2000/svg">
<path d="M90.4401 44.5173H7.37012V0.237305H89.8301C95.7301 0.237305 97.8801 4.2773 97.8801 10.1773V35.1873C97.8801 40.7473 96.0001 44.5173 90.4401 44.5173Z" fill="black"/>
<path d="M37.0802 42.1271V33.2071L35.2102 39.0671H33.4602L31.6302 33.2271V42.1171H28.2202V25.0071H31.2202L34.3402 33.3971L37.4602 25.0071H40.4902V42.1171H37.0802V42.1271Z" fill="white"/>
<path d="M51.4 40.6071C50.61 41.5471 49.55 42.3171 47.63 42.3171C45.71 42.3171 44.7 41.5471 43.9 40.6071C42.53 38.9771 42.63 35.8771 42.63 33.5671C42.63 31.2571 42.53 28.1571 43.9 26.5271C44.69 25.5871 45.7 24.8171 47.63 24.8171C49.56 24.8171 50.61 25.5871 51.4 26.5271C52.77 28.1571 52.67 31.2571 52.67 33.5671C52.67 35.8771 52.77 38.9771 51.4 40.6071ZM48.8 28.5671C48.61 28.1871 48.25 27.8971 47.62 27.8971C46.99 27.8971 46.68 28.1871 46.49 28.5671C46.08 29.3571 46.03 31.4971 46.03 33.5671C46.03 35.6371 46.08 37.7771 46.49 38.5671C46.68 38.9471 46.99 39.2371 47.62 39.2371C48.25 39.2371 48.61 38.9471 48.8 38.5671C49.21 37.7771 49.26 35.6371 49.26 33.5671C49.26 31.4971 49.21 29.3571 48.8 28.5671Z" fill="white"/>
<path d="M63.3901 40.4671C62.6201 41.3571 61.5601 42.1271 59.6401 42.1271H54.8101V25.0171H59.6401C61.5601 25.0171 62.6201 25.7871 63.3901 26.6771C64.7601 28.2671 64.6601 31.3371 64.6601 33.5771C64.6601 35.8171 64.7601 38.8871 63.3901 40.4771V40.4671ZM60.8401 28.8371C60.6201 28.4071 60.1901 28.0871 59.5701 28.0871H58.2201V39.0471H59.5701C60.1901 39.0471 60.6301 38.7371 60.8401 38.2971C61.2501 37.5071 61.2501 35.4371 61.2501 33.5371C61.2501 31.6371 61.2501 29.6171 60.8401 28.8271V28.8371Z" fill="white"/>
<path d="M66.8003 42.1271V25.0171H74.6803V28.0971H70.2103V31.9671H74.0603V35.0471H70.2103V39.0571H74.6803V42.1371H66.8003V42.1271Z" fill="white"/>
<path d="M76.7803 42.1271V25.0171H80.1903V39.0571H84.6603V42.1371H76.7803V42.1271Z" fill="white"/>
<path d="M94.3402 40.6071C93.5502 41.5471 92.4902 42.3171 90.5702 42.3171C88.6502 42.3171 87.6402 41.5471 86.8502 40.6071C85.4802 38.9771 85.5802 35.8771 85.5802 33.5671C85.5802 31.2571 85.4802 28.1571 86.8502 26.5271C87.6402 25.5871 88.6502 24.8171 90.5702 24.8171C92.4902 24.8171 93.5502 25.5871 94.3402 26.5271C95.7102 28.1571 95.6102 31.2571 95.6102 33.5671C95.6102 35.8771 95.7102 38.9771 94.3402 40.6071ZM91.7402 28.5671C91.5502 28.1871 91.1902 27.8971 90.5602 27.8971C89.9302 27.8971 89.6202 28.1871 89.4302 28.5671C89.0202 29.3571 88.9702 31.4971 88.9702 33.5671C88.9702 35.6371 89.0202 37.7771 89.4302 38.5671C89.6202 38.9471 89.9302 39.2371 90.5602 39.2371C91.1902 39.2371 91.5502 38.9471 91.7402 38.5671C92.1502 37.7771 92.2002 35.6371 92.2002 33.5671C92.2002 31.4971 92.1502 29.3571 91.7402 28.5671Z" fill="white"/>
<path d="M37.25 22.6771L32.87 12.5871V22.6771H28.75V2.03711H32.34L36.63 12.1271V2.03711H40.75V22.6771H37.24H37.25Z" fill="white"/>
<path d="M53.9198 21.1971C52.8198 22.3271 51.3698 22.9071 49.6298 22.9071C47.8898 22.9071 46.4398 22.3271 45.3398 21.1971C44.3498 20.1871 43.7998 18.7871 43.7998 17.1371V2.03711H47.9198V17.3471C47.9198 18.6771 48.6998 19.2071 49.6298 19.2071C50.5598 19.2071 51.3398 18.6871 51.3398 17.3471V2.03711H55.4598V17.1371C55.4598 18.7871 54.9098 20.1771 53.9198 21.1971Z" fill="white"/>
<path d="M58.5 22.6771V2.03711H68.01V5.74711H62.62V10.4171H67.26V14.1271H62.62V18.9671H68.01V22.6771H58.5Z" fill="white"/>
<path d="M77.9498 22.6771H73.6598L69.0498 2.03711H73.5698L75.7998 16.6171L78.0598 2.03711H82.5798L77.9398 22.6771H77.9498Z" fill="white"/>
<path d="M94.2699 20.8471C93.3099 21.9771 92.0399 22.9071 89.7199 22.9071C87.3999 22.9071 86.1799 21.9771 85.2299 20.8471C83.5799 18.8771 83.6899 15.1371 83.6899 12.3471C83.6899 9.55712 83.5699 5.82712 85.2299 3.85712C86.1899 2.72712 87.3999 1.79712 89.7199 1.79712C92.0399 1.79712 93.3199 2.72712 94.2699 3.85712C95.9199 5.82712 95.8099 9.56712 95.8099 12.3471C95.8099 15.1271 95.9299 18.8671 94.2699 20.8471ZM91.1399 6.31712C90.9099 5.85712 90.4699 5.50712 89.7199 5.50712C88.9699 5.50712 88.5899 5.85712 88.3599 6.31712C87.8699 7.27712 87.8099 9.85712 87.8099 12.3471C87.8099 14.8371 87.8699 17.4171 88.3599 18.3771C88.5899 18.8371 88.9699 19.1871 89.7199 19.1871C90.4699 19.1871 90.9099 18.8371 91.1399 18.3771C91.6299 17.4171 91.6899 14.8371 91.6899 12.3471C91.6899 9.85712 91.6299 7.27712 91.1399 6.31712Z" fill="white"/>
<path d="M14.3403 9.21722C12.2503 9.21722 10.1603 9.21722 8.08032 9.21722C7.62032 9.21722 7.49032 9.09721 7.48032 8.63721C7.48032 8.25721 7.48032 7.86722 7.48032 7.48722C7.48032 6.41722 7.48032 6.42722 6.41032 6.43722C6.14032 6.43722 6.10032 6.52722 6.10032 6.76722C6.08032 7.78722 6.19032 8.81722 6.03032 9.83722C5.91032 10.5772 5.71032 11.2672 5.34032 11.9472C4.97032 12.6172 4.42032 13.1072 3.96032 13.6772C2.58032 15.3772 1.64032 17.2772 1.14032 19.4272C0.770322 21.0572 0.760322 22.6772 0.930322 24.3072C1.08032 25.7372 1.57032 27.0872 2.20032 28.3672C2.83032 29.6472 3.66032 30.8172 4.66032 31.8572C5.24032 32.4672 5.65032 33.1972 5.87032 34.0272C6.15032 35.0772 6.10032 36.1472 6.11032 37.2172C6.11032 37.5572 6.00032 38.0172 6.17032 38.2072C6.38032 38.4272 6.84032 38.2472 7.19032 38.2772C7.44032 38.3072 7.48032 38.1972 7.48032 37.9672C7.47032 37.3172 7.48032 36.6772 7.48032 36.0272C7.48032 35.7272 7.60032 35.5672 7.94032 35.5372C8.94032 35.4372 9.94032 35.4972 10.9403 35.4972C14.1803 35.4872 17.4203 35.4972 20.6703 35.4972C21.2603 35.4972 21.4303 35.6672 21.4303 36.2472C21.4303 36.5772 21.4203 36.9072 21.4303 37.2372C21.4403 37.5772 21.2703 38.0372 21.5003 38.2172C21.7103 38.3872 22.1603 38.2472 22.4903 38.2772C22.7703 38.3072 22.8003 38.1772 22.7903 37.9472C22.7803 37.2072 22.8103 36.4672 22.7803 35.7172C22.7403 34.7272 22.9503 33.8172 23.4003 32.9272C23.8303 32.0972 24.5303 31.4872 25.1003 30.7772C26.2203 29.3672 27.0203 27.7972 27.4903 26.0672C27.8203 24.8572 28.0703 23.6372 28.0403 22.3672C28.0203 21.4072 27.8903 20.4672 27.7103 19.5272C27.3503 17.6072 26.5103 15.9172 25.4103 14.3272C24.9303 13.6372 24.3003 13.0672 23.8003 12.3972C23.1803 11.5672 22.8103 10.6172 22.7803 9.59722C22.7603 8.89722 22.7803 8.18721 22.7903 7.47721C22.7903 7.13721 22.9403 6.69722 22.7203 6.49722C22.5003 6.29722 22.0603 6.46722 21.7303 6.43722C21.4503 6.40722 21.4203 6.52722 21.4203 6.76722C21.4303 7.38722 21.4303 8.00722 21.4203 8.61722C21.4203 9.05722 21.1603 9.26721 20.7203 9.22721C20.6003 9.21721 20.4703 9.22721 20.3503 9.22721C18.3403 9.22721 16.3403 9.22721 14.3303 9.22721L14.3403 9.21722ZM14.4403 1.39722C12.5503 1.39722 10.6503 1.39722 8.76032 1.39722C8.47032 1.39722 8.40032 1.46722 8.40032 1.75722C8.41032 3.81722 8.41032 5.87722 8.40032 7.93722C8.40032 8.21722 8.45032 8.30722 8.75032 8.30722C12.5403 8.29722 16.3303 8.29722 20.1103 8.30722C20.4003 8.30722 20.5103 8.24722 20.5103 7.92722C20.4903 5.88722 20.4903 3.83721 20.5103 1.79721C20.5103 1.48721 20.4203 1.40722 20.1203 1.40722C18.2303 1.41722 16.3303 1.40722 14.4403 1.40722V1.39722ZM14.4303 36.4372C12.5303 36.4372 10.6403 36.4372 8.74032 36.4372C8.48032 36.4372 8.39032 36.4872 8.40032 36.7672C8.41032 38.8372 8.41032 40.9172 8.40032 42.9872C8.40032 43.2572 8.47032 43.3272 8.74032 43.3272C12.5403 43.3272 16.3503 43.3272 20.1503 43.3272C20.4503 43.3272 20.5103 43.2272 20.5103 42.9572C20.5003 40.9072 20.5003 38.8672 20.5103 36.8172C20.5103 36.4872 20.4103 36.4372 20.1103 36.4372C18.2103 36.4472 16.3203 36.4372 14.4203 36.4372H14.4303ZM30.7503 22.3772C30.7503 22.1272 30.7703 21.8672 30.6703 21.6172C30.3803 20.8972 29.8603 20.4372 29.1203 20.2272C29.0103 20.1972 28.7303 20.0672 28.7803 20.4172C28.8503 20.8772 28.9503 21.3272 28.9403 21.7972C28.9403 22.6172 28.9203 23.4372 28.8203 24.2472C28.7703 24.6172 28.8503 24.5972 29.1403 24.5072C30.1703 24.1672 30.7403 23.4172 30.7403 22.3672L30.7503 22.3772Z" fill="#FFED00"/>
<path d="M14.3404 9.2172C16.3504 9.2172 18.3504 9.2172 20.3604 9.2172C20.4804 9.2172 20.6104 9.2172 20.7304 9.2172C21.1604 9.2572 21.4204 9.0472 21.4304 8.6072C21.4404 7.9872 21.4404 7.3672 21.4304 6.7572C21.4304 6.5272 21.4604 6.3972 21.7404 6.4272C22.0804 6.4672 22.5204 6.2872 22.7304 6.4872C22.9504 6.6872 22.8004 7.1372 22.8004 7.4672C22.8004 8.1772 22.7704 8.8872 22.7904 9.5872C22.8204 10.6072 23.1904 11.5572 23.8104 12.3872C24.3104 13.0572 24.9404 13.6272 25.4204 14.3172C26.5204 15.9072 27.3604 17.5972 27.7204 19.5172C27.9004 20.4572 28.0204 21.3972 28.0504 22.3572C28.0804 23.6272 27.8304 24.8472 27.5004 26.0572C27.0304 27.7872 26.2304 29.3572 25.1104 30.7672C24.5404 31.4872 23.8404 32.0872 23.4104 32.9172C22.9604 33.7972 22.7404 34.7172 22.7904 35.7072C22.8204 36.4472 22.7904 37.1872 22.8004 37.9372C22.8004 38.1672 22.7804 38.2972 22.5004 38.2672C22.1604 38.2372 21.7204 38.3672 21.5104 38.2072C21.2904 38.0272 21.4604 37.5672 21.4404 37.2272C21.4304 36.8972 21.4404 36.5672 21.4404 36.2372C21.4404 35.6672 21.2604 35.4872 20.6804 35.4872C17.4404 35.4872 14.2004 35.4872 10.9504 35.4872C9.95043 35.4872 8.95043 35.4372 7.95043 35.5272C7.61043 35.5572 7.49043 35.7172 7.49043 36.0172C7.49043 36.6672 7.49043 37.3072 7.49043 37.9572C7.49043 38.1772 7.45043 38.2872 7.20043 38.2672C6.85043 38.2272 6.38043 38.4172 6.18043 38.1972C6.01043 38.0072 6.12043 37.5472 6.12043 37.2072C6.12043 36.1372 6.16043 35.0672 5.88043 34.0172C5.66043 33.1872 5.25043 32.4472 4.67043 31.8472C3.67043 30.8072 2.84043 29.6472 2.21043 28.3572C1.58043 27.0772 1.10043 25.7172 0.94043 24.2972C0.76043 22.6672 0.77043 21.0372 1.15043 19.4172C1.64043 17.2672 2.58043 15.3772 3.97043 13.6672C4.43043 13.0972 4.98043 12.6072 5.35043 11.9372C5.72043 11.2672 5.92043 10.5672 6.04043 9.8272C6.20043 8.8072 6.10043 7.7772 6.11043 6.7572C6.11043 6.5172 6.15043 6.4272 6.42043 6.4272C7.49043 6.4272 7.49043 6.4172 7.49043 7.4772C7.49043 7.8572 7.49043 8.2472 7.49043 8.6272C7.50043 9.0872 7.63043 9.2072 8.09043 9.2072C10.1804 9.2072 12.2704 9.2072 14.3504 9.2072L14.3404 9.2172ZM24.9804 22.2772C24.9804 21.7272 24.9104 21.1872 24.8304 20.6372C24.6404 19.2772 24.1304 18.0272 23.4504 16.8672C22.8804 15.9072 22.1704 15.0172 21.2704 14.3272C20.7704 13.9472 20.2704 13.5572 19.7204 13.2472C19.3504 13.0372 18.9404 12.8972 18.5804 12.6872C18.0204 12.3572 17.3804 12.1772 16.7904 12.0272C16.2404 11.8872 15.6304 11.8672 15.0404 11.8072C13.9904 11.7172 12.9704 11.8872 11.9504 12.1072C11.2504 12.2572 10.5904 12.4972 9.94043 12.7972C9.00043 13.2372 8.15043 13.7972 7.38043 14.4772C6.58043 15.1972 5.88043 15.9972 5.37043 16.9872C5.06043 17.5872 4.69043 18.1672 4.47043 18.8072C4.01043 20.0972 3.87043 21.4072 3.92043 22.7872C3.95043 23.5072 4.02043 24.2172 4.18043 24.8972C4.42043 25.9072 4.82043 26.8672 5.36043 27.7772C6.36043 29.4672 7.71043 30.7772 9.45043 31.6772C10.1004 32.0172 10.7704 32.2872 11.5004 32.4772C12.1404 32.6472 12.7804 32.8472 13.4304 32.8972C14.2604 32.9572 15.0904 32.9272 15.9204 32.8272C17.0604 32.6872 18.1604 32.3472 19.1704 31.8172C20.3204 31.2172 21.3404 30.4372 22.2404 29.4772C23.0404 28.6172 23.6504 27.6572 24.1104 26.6072C24.7204 25.2372 25.0304 23.7772 25.0004 22.2672L24.9804 22.2772Z" fill="#FFED00" stroke="black" stroke-width="0.75" stroke-miterlimit="10"/>
<path d="M14.4404 1.40722C16.3304 1.40722 18.2304 1.40722 20.1204 1.40722C20.4304 1.40722 20.5104 1.47721 20.5104 1.79721C20.4904 3.83721 20.4904 5.88722 20.5104 7.92722C20.5104 8.24722 20.4104 8.30722 20.1104 8.30722C16.3204 8.30722 12.5304 8.29722 8.75039 8.30722C8.45039 8.30722 8.40039 8.21722 8.40039 7.93722C8.41039 5.87722 8.41039 3.81722 8.40039 1.75722C8.40039 1.46722 8.47039 1.39722 8.76039 1.39722C10.6504 1.40722 12.5504 1.39722 14.4404 1.39722V1.40722Z" fill="#FFED00" stroke="black" stroke-width="0.75" stroke-miterlimit="10"/>
<path d="M14.4302 36.4473C16.3302 36.4473 18.2202 36.4473 20.1202 36.4473C20.4102 36.4473 20.5202 36.4973 20.5202 36.8273C20.5002 38.8773 20.5102 40.9173 20.5202 42.9673C20.5202 43.2473 20.4602 43.3473 20.1602 43.3373C16.3602 43.3373 12.5502 43.3373 8.75016 43.3373C8.48016 43.3373 8.41016 43.2673 8.41016 42.9973C8.42016 40.9273 8.42016 38.8473 8.41016 36.7773C8.41016 36.4973 8.50016 36.4473 8.75016 36.4473C10.6502 36.4573 12.5402 36.4473 14.4402 36.4473H14.4302Z" fill="#FFED00" stroke="black" stroke-width="0.75" stroke-miterlimit="10"/>
<path d="M30.7503 22.3772C30.7503 23.4272 30.1803 24.1772 29.1503 24.5172C28.8603 24.6172 28.7903 24.6372 28.8303 24.2572C28.9303 23.4472 28.9403 22.6272 28.9503 21.8072C28.9503 21.3272 28.8603 20.8772 28.7903 20.4272C28.7303 20.0672 29.0203 20.2072 29.1303 20.2372C29.8603 20.4472 30.3903 20.9072 30.6803 21.6272C30.7803 21.8772 30.7503 22.1272 30.7603 22.3872L30.7503 22.3772Z" fill="#FFED00" stroke="black" stroke-miterlimit="10"/>
<path d="M24.9802 22.2773C25.0102 23.7873 24.7002 25.2473 24.0902 26.6173C23.6202 27.6573 23.0202 28.6273 22.2202 29.4873C21.3202 30.4473 20.3002 31.2273 19.1502 31.8273C18.1402 32.3573 17.0502 32.6973 15.9002 32.8373C15.0702 32.9373 14.2402 32.9673 13.4102 32.9073C12.7602 32.8573 12.1202 32.6573 11.4802 32.4873C10.7502 32.2873 10.0802 32.0273 9.43022 31.6873C7.70022 30.7773 6.35022 29.4673 5.34022 27.7873C4.80022 26.8873 4.40022 25.9173 4.16022 24.9073C4.00022 24.2273 3.93022 23.5173 3.90022 22.7973C3.85022 21.4173 3.99022 20.1073 4.45022 18.8173C4.68022 18.1773 5.04022 17.5973 5.35022 16.9973C5.87022 16.0173 6.56022 15.2073 7.36022 14.4873C8.12022 13.8073 8.98022 13.2473 9.92022 12.8073C10.5702 12.5073 11.2302 12.2673 11.9302 12.1173C12.9502 11.8973 13.9802 11.7273 15.0202 11.8173C15.6102 11.8673 16.2202 11.8973 16.7702 12.0373C17.3702 12.1873 18.0002 12.3673 18.5602 12.6973C18.9202 12.9073 19.3302 13.0473 19.7002 13.2573C20.2502 13.5673 20.7502 13.9573 21.2502 14.3373C22.1602 15.0273 22.8702 15.9073 23.4302 16.8773C24.1102 18.0373 24.6202 19.2873 24.8102 20.6473C24.8902 21.1973 24.9602 21.7373 24.9602 22.2873L24.9802 22.2773ZM7.92022 15.2273C8.19022 15.4973 8.45022 15.7573 8.71022 16.0273C8.95022 16.2673 8.80022 16.4773 8.63022 16.6573C8.46022 16.8273 8.27022 16.8073 8.09022 16.6473C7.89022 16.4573 7.69022 16.2673 7.51022 16.0673C7.35022 15.8973 7.21022 15.8973 7.08022 16.0773C6.35022 17.0673 5.63022 18.0673 5.26022 19.2773C5.05022 19.9673 4.90022 20.6673 4.79022 21.3673C4.70022 21.9473 4.72022 21.9473 5.32022 21.9473C5.50022 21.9473 5.68022 21.9473 5.86022 21.9473C6.19022 21.9373 6.31022 22.1073 6.27022 22.4073C6.24022 22.6673 6.14022 22.8573 5.81022 22.8273C5.55022 22.7973 5.29022 22.8173 5.03022 22.8173C4.94022 22.8173 4.79022 22.8173 4.83022 22.9473C4.89022 23.1373 4.75022 23.3173 4.81022 23.4973C5.04022 24.1773 5.09022 24.9073 5.34022 25.5873C5.71022 26.6073 6.19022 27.5373 6.88022 28.3673C7.27022 28.8373 7.28022 28.8273 7.73022 28.3773C7.91022 28.1973 8.06022 27.9773 8.36022 27.9673C8.57022 27.9673 8.68022 28.0673 8.76022 28.2473C8.81022 28.3473 8.88022 28.5173 8.80022 28.5273C8.51022 28.5473 8.72022 28.8473 8.52022 28.9373C8.33022 29.0173 8.21022 29.2473 8.04022 29.3873C7.91022 29.4973 7.97022 29.5573 8.06022 29.6273C9.11022 30.4773 10.2202 31.2273 11.5402 31.5973C12.2702 31.7973 12.9902 32.0573 13.7702 31.9973C13.9502 31.9873 14.0102 31.9373 14.0002 31.7573C14.0002 31.4873 14.0002 31.2073 14.0002 30.9373C14.0002 30.6473 14.1502 30.5273 14.4402 30.5273C14.7402 30.5273 14.8502 30.6773 14.8502 30.9573C14.8502 31.1673 14.8702 31.3673 14.8502 31.5773C14.8002 31.9673 14.9802 32.0573 15.3302 32.0173C16.0202 31.9473 16.6902 31.8173 17.3502 31.5973C18.1102 31.3473 18.8302 31.0273 19.5002 30.6073C19.8902 30.3673 20.2102 30.0473 20.6202 29.8273C20.8802 29.6873 20.9902 29.4673 20.6802 29.2173C20.5202 29.0873 20.3902 28.9273 20.2402 28.7873C20.0302 28.5973 19.9402 28.3873 20.1602 28.1573C20.3802 27.9173 20.6302 27.9373 20.8602 28.1573C21.0402 28.3273 21.2202 28.4973 21.3802 28.6873C21.5002 28.8273 21.5802 28.8073 21.7102 28.6873C22.1802 28.2173 22.5302 27.6473 22.8502 27.0773C23.4202 26.0773 23.8302 25.0173 23.9402 23.8573C23.9702 23.5373 24.0802 23.2173 24.1602 22.8973C23.8202 22.8973 23.4702 22.8573 23.1302 22.8773C22.7202 22.9073 22.6602 22.5973 22.6202 22.3373C22.5702 22.0273 22.8402 21.9373 23.0802 21.8873C23.2302 21.8573 23.3802 21.8873 23.5302 21.8873C24.0502 21.8873 24.0402 21.8873 24.0102 21.3473C24.0002 21.0873 23.9802 20.8473 23.9202 20.5973C23.5402 18.8973 22.8802 17.3473 21.7002 16.0473C21.6002 15.9373 21.5202 15.9273 21.4402 16.0173C21.1802 16.2873 20.8902 16.5173 20.5502 16.6873C20.3602 16.7773 20.3002 16.7573 20.1902 16.6373C19.9402 16.3873 20.0402 16.1373 20.2302 15.9173C20.4002 15.7173 20.5902 15.5473 20.7802 15.3573C20.8902 15.2573 20.9002 15.2173 20.7602 15.0973C20.1102 14.5373 19.4302 14.0173 18.6302 13.6673C18.3902 13.5673 18.1702 13.3773 17.9202 13.3273C16.9902 13.1073 16.0702 12.8073 15.1002 12.7673C14.9002 12.7673 14.8602 12.7673 14.8702 12.9473C14.8702 13.2373 14.8902 13.5273 14.8702 13.8173C14.8502 14.0373 14.7802 14.1873 14.4902 14.2473C14.1902 14.3073 14.1502 14.1073 14.0702 13.9473C13.9502 13.6873 13.9402 13.3973 13.9702 13.1173C13.9902 12.8873 13.9102 12.8273 13.6802 12.8173C12.7802 12.7973 11.9302 13.0373 11.1002 13.3273C9.92022 13.7473 8.87022 14.3873 7.95022 15.2473L7.92022 15.2273Z" fill="black"/>
<path d="M7.92046 15.2273C8.84046 14.3673 9.89046 13.7273 11.0705 13.3073C11.9005 13.0073 12.7505 12.7773 13.6505 12.7973C13.8805 12.7973 13.9705 12.8573 13.9405 13.0973C13.9105 13.3773 13.9205 13.6673 14.0405 13.9273C14.1105 14.0873 14.1505 14.2773 14.4605 14.2273C14.7505 14.1773 14.8205 14.0173 14.8405 13.7973C14.8605 13.5073 14.8405 13.2173 14.8405 12.9273C14.8405 12.7473 14.8705 12.7373 15.0705 12.7473C16.0405 12.7973 16.9605 13.0973 17.8905 13.3073C18.1405 13.3673 18.3605 13.5473 18.6005 13.6473C19.4005 13.9973 20.0705 14.5073 20.7305 15.0773C20.8805 15.2073 20.8605 15.2373 20.7505 15.3373C20.5605 15.5173 20.3705 15.6973 20.2005 15.8973C20.0205 16.1173 19.9105 16.3573 20.1605 16.6173C20.2805 16.7373 20.3405 16.7573 20.5205 16.6673C20.8705 16.4973 21.1505 16.2773 21.4105 15.9973C21.4905 15.9173 21.5705 15.9173 21.6705 16.0273C22.8605 17.3273 23.5205 18.8773 23.8905 20.5773C23.9505 20.8273 23.9705 21.0773 23.9805 21.3273C24.0005 21.8673 24.0205 21.8673 23.5005 21.8673C23.3505 21.8673 23.1905 21.8473 23.0505 21.8673C22.8105 21.9173 22.5405 22.0073 22.5905 22.3173C22.6305 22.5773 22.6905 22.8873 23.1005 22.8573C23.4405 22.8373 23.7805 22.8673 24.1305 22.8773C24.0505 23.1973 23.9405 23.5073 23.9105 23.8373C23.8005 24.9973 23.3805 26.0573 22.8205 27.0573C22.5005 27.6273 22.1505 28.1973 21.6805 28.6673C21.5505 28.7973 21.4705 28.8073 21.3505 28.6673C21.1905 28.4873 21.0105 28.3173 20.8305 28.1373C20.6005 27.9173 20.3605 27.8973 20.1305 28.1373C19.9205 28.3673 20.0005 28.5773 20.2105 28.7673C20.3605 28.9073 20.4905 29.0673 20.6505 29.1973C20.9605 29.4373 20.8505 29.6673 20.5905 29.8073C20.1905 30.0273 19.8605 30.3473 19.4705 30.5873C18.7905 31.0073 18.0805 31.3273 17.3205 31.5773C16.6605 31.7873 15.9905 31.9273 15.3005 31.9973C14.9605 32.0373 14.7705 31.9373 14.8205 31.5573C14.8505 31.3573 14.8205 31.1473 14.8205 30.9373C14.8205 30.6573 14.7205 30.5073 14.4105 30.5073C14.1205 30.5073 13.9705 30.6373 13.9705 30.9173C13.9705 31.1873 13.9705 31.4673 13.9705 31.7373C13.9705 31.9173 13.9205 31.9573 13.7405 31.9773C12.9605 32.0373 12.2405 31.7773 11.5105 31.5773C10.1905 31.2073 9.08046 30.4573 8.03046 29.6073C7.94046 29.5373 7.88046 29.4773 8.01046 29.3673C8.18046 29.2273 8.30046 28.9973 8.49046 28.9173C8.70046 28.8273 8.49046 28.5273 8.77046 28.5073C8.86046 28.5073 8.78046 28.3273 8.73046 28.2273C8.65046 28.0473 8.54046 27.9373 8.33046 27.9473C8.04046 27.9573 7.88046 28.1773 7.70046 28.3573C7.25046 28.8073 7.24046 28.8173 6.85046 28.3473C6.16046 27.5173 5.68046 26.5873 5.31046 25.5673C5.06046 24.8773 5.01046 24.1573 4.78046 23.4773C4.72046 23.2973 4.86046 23.1273 4.80046 22.9273C4.76046 22.7973 4.91046 22.7973 5.00046 22.7973C5.26046 22.7973 5.52046 22.7773 5.78046 22.8073C6.11046 22.8473 6.21046 22.6473 6.24046 22.3873C6.28046 22.0973 6.16046 21.9173 5.83046 21.9273C5.65046 21.9273 5.47046 21.9273 5.29046 21.9273C4.69046 21.9273 4.68046 21.9273 4.76046 21.3473C4.87046 20.6373 5.02046 19.9473 5.23046 19.2573C5.60046 18.0473 6.31046 17.0473 7.05046 16.0573C7.19046 15.8673 7.32046 15.8673 7.48046 16.0473C7.67046 16.2473 7.86046 16.4373 8.06046 16.6273C8.23046 16.7873 8.43046 16.8173 8.60046 16.6373C8.77046 16.4573 8.92046 16.2473 8.68046 16.0073C8.42046 15.7473 8.16046 15.4773 7.89046 15.2073L7.92046 15.2273ZM14.9105 19.1473C14.9105 18.6373 14.9105 18.1273 14.9105 17.6273C14.9105 17.1873 14.7505 17.0273 14.4005 17.0073C13.9205 16.9773 14.0005 17.3273 14.0005 17.5873C13.9905 18.6073 13.9905 19.6173 14.0005 20.6373C14.0005 20.8373 13.9505 20.9373 13.7605 21.0373C13.1005 21.3573 12.7505 22.2273 12.9805 22.8573C13.2505 23.5673 14.1105 24.0373 14.8105 23.8273C15.0805 23.7473 15.2405 23.7973 15.4205 23.9873C16.2205 24.7973 17.0405 25.5973 17.8405 26.4073C18.0805 26.6473 18.3005 26.6673 18.5305 26.4073C18.7905 26.1173 18.5905 25.9073 18.3905 25.7173C17.5905 24.9073 16.7905 24.0973 15.9705 23.2973C15.7905 23.1273 15.7405 22.9873 15.8305 22.7473C16.0505 22.0973 15.7905 21.4273 15.1905 21.1173C14.9705 21.0073 14.9105 20.8673 14.9205 20.6373C14.9405 20.1473 14.9205 19.6473 14.9205 19.1573L14.9105 19.1473Z" fill="#FFED00"/>
<path d="M14.9101 19.1472C14.9101 19.6372 14.9201 20.1372 14.9101 20.6272C14.9101 20.8572 14.9701 20.9872 15.1801 21.1072C15.7801 21.4172 16.0501 22.0872 15.8201 22.7372C15.7301 22.9872 15.7901 23.1172 15.9601 23.2872C16.7801 24.0872 17.5801 24.8972 18.3801 25.7072C18.5701 25.8972 18.7801 26.1072 18.5201 26.3972C18.2901 26.6572 18.0701 26.6372 17.8301 26.3972C17.0301 25.5872 16.2201 24.7872 15.4101 23.9772C15.2301 23.7972 15.0701 23.7372 14.8001 23.8172C14.1001 24.0272 13.2301 23.5572 12.9701 22.8472C12.7301 22.2172 13.0901 21.3472 13.7501 21.0272C13.9401 20.9372 13.9901 20.8272 13.9901 20.6272C13.9801 19.6072 13.9801 18.5972 13.9901 17.5772C13.9901 17.3072 13.9101 16.9672 14.3901 16.9972C14.7501 17.0172 14.9001 17.1772 14.9001 17.6172C14.9001 18.1272 14.9001 18.6372 14.9001 19.1372L14.9101 19.1472ZM14.4201 22.9472C14.6901 22.9472 14.9901 22.6672 15.0001 22.3872C15.0201 22.1072 14.7201 21.8072 14.4101 21.7872C14.1601 21.7772 13.8501 22.0972 13.8501 22.3672C13.8501 22.7372 14.0501 22.9372 14.4201 22.9472Z" fill="black"/>
<path d="M14.4304 22.9373C14.0604 22.9373 13.8604 22.7373 13.8604 22.3573C13.8604 22.0873 14.1704 21.7673 14.4204 21.7773C14.7304 21.7973 15.0304 22.0873 15.0104 22.3773C14.9904 22.6573 14.7004 22.9373 14.4304 22.9373Z" fill="#FFED00"/>
</svg>
