<svg height="464pt" viewBox="0 0 464 464" width="464pt" xmlns="http://www.w3.org/2000/svg"><path d="m72 232c0 9.238281 1.527344 18.289062 4.398438 27.039062l110.640624-110.640624c-8.75-2.871094-17.800781-4.398438-27.039062-4.398438-48.519531 0-88 39.480469-88 88zm0 0"/><path d="m48 0-48 48h48zm0 0"/><path d="m64.015625 271.425781c-5.214844-12.625-8.015625-25.832031-8.015625-39.425781 0-57.34375 46.65625-104 104-104 13.59375 0 26.800781 2.800781 39.425781 8.015625l12.175781-12.175781c-16.136718-7.734375-33.769531-11.839844-51.601562-11.839844-66.167969 0-120 53.832031-120 120 0 17.832031 4.105469 35.457031 11.839844 51.601562zm0 0"/><path d="m320 400h96v16h-96zm0 0"/><path d="m341.433594 218.105469c-8.546875 7.589843-13.433594 18.496093-13.433594 29.894531 0 8.601562 2.695312 16.792969 7.792969 23.679688 10.605469 14.335937 16.207031 32.792968 16.207031 53.359374v1.824219c0 21.199219-7.511719 41.214844-21.160156 57.144531h74.320312c-13.648437-15.929687-21.160156-35.945312-21.160156-57.144531v-2.902343c0-18.265626 5.871094-36.464844 17.472656-54.082032 5.511719-8.390625 7.597656-18.191406 6.023438-28.34375-2.679688-17.222656-17.230469-31.207031-34.617188-33.238281-11.605468-1.359375-22.808594 2.117187-31.445312 9.808594zm50.566406 29.894531h-16c0-4.414062-3.585938-8-8-8s-8 3.585938-8 8 3.585938 8 8 8v16c-13.230469 0-24-10.769531-24-24s10.769531-24 24-24 24 10.769531 24 24zm0 0"/><path d="m440 432h-144c-13.230469 0-24 10.769531-24 24v8h192v-8c0-13.230469-10.769531-24-24-24zm0 0"/><path d="m160 320c48.519531 0 88-39.480469 88-88 0-9.238281-1.527344-18.289062-4.398438-27.039062l-110.640624 110.640624c8.75 2.871094 17.800781 4.398438 27.039062 4.398438zm0 0"/><path d="m304 416v-27.3125l10.910156-10.910156c13.59375-13.601563 21.089844-31.679688 21.089844-50.914063v-1.824219c0-11.933593-2.265625-29.238281-13.070312-43.839843-7.144532-9.664063-10.929688-21.144531-10.929688-33.199219 0-15.976562 6.847656-31.222656 18.792969-41.847656 10.253906-9.113282 23.542969-14.054688 37.207031-14.097656v-192.054688h-304v64h-64v368h264.207031c7.3125-9.65625 18.785157-16 31.792969-16zm-96-400h144v16h-144zm-128 32h272v16h-272zm-48 368h-16v-16h16zm224 0h-208v-16h208zm-96-48c-22.089844 0-43.894531-5.527344-63.503906-15.9375l-17.785156 17.785156-5.429688-3.503906c-19.183594-12.414062-35.210938-28.441406-47.625-47.625l-3.503906-5.429688 17.785156-17.785156c-10.410156-19.609375-15.9375-41.414062-15.9375-63.503906 0-74.992188 61.007812-136 136-136 22.089844 0 43.894531 5.527344 63.503906 15.9375l17.785156-17.785156 5.429688 3.503906c9.785156 6.320312 18.664062 13.457031 26.417969 21.199219 7.757812 7.761719 14.886719 16.640625 21.207031 26.425781l3.503906 5.429688-17.785156 17.785156c10.402344 19.617187 15.9375 41.425781 15.9375 63.503906 0 74.992188-61.007812 136-136 136zm0 0"/><path d="m261.832031 130.183594c-5.527343-5.527344-11.71875-10.71875-18.464843-15.488282l-200.664063 200.664063c9.375 13.183594 20.753906 24.5625 33.9375 33.9375l200.664063-200.664063c-4.769532-6.738281-9.953126-12.929687-15.472657-18.449218zm-184.175781 195.472656-11.3125-11.3125 16-16 11.3125 11.3125zm32-32-11.3125-11.3125 16-16 11.3125 11.3125zm32-32-11.3125-11.3125 16-16 11.3125 11.3125zm32-32-11.3125-11.3125 16-16 11.3125 11.3125zm32-32-11.3125-11.3125 16-16 11.3125 11.3125zm32-32-11.3125-11.3125 16-16 11.3125 11.3125zm0 0"/><path d="m255.984375 192.585938c5.214844 12.621093 8.015625 25.820312 8.015625 39.414062 0 57.34375-46.65625 104-104 104-13.59375 0-26.800781-2.800781-39.425781-8.015625l-12.175781 12.175781c16.136718 7.734375 33.769531 11.839844 51.601562 11.839844 66.167969 0 120-53.832031 120-120 0-17.832031-4.105469-35.457031-11.839844-51.601562zm0 0"/></svg>